<svg xmlns="http://www.w3.org/2000/svg" xmlns:xlink="http://www.w3.org/1999/xlink"><defs>
<clipPath id="clip0_1271_11029">
<rect width="18" height="18" fill="white" transform="translate(0 0.5)"/>
</clipPath>

<clipPath id="clip0_1307_5773">
<rect width="14" height="14" transform="translate(0 0.5)"/>
</clipPath>

<clipPath id="clip0_1307_5778">
<rect width="14" height="14" transform="translate(0 0.5)"/>
</clipPath>

<clipPath id="clip0_1271_11034">
<rect width="16" height="18" fill="white" transform="translate(0 0.5)"/>
</clipPath>

<clipPath id="clip0_1307_5782">
<rect width="14" height="14" transform="translate(0 0.5)"/>
</clipPath>
</defs><symbol id="arrow-btn-up" viewBox="0 0 25 24">
<path d="M12.5 4L11.7929 3.29289L12.5 2.58579L13.2071 3.29289L12.5 4ZM13.5 19C13.5 19.5523 13.0523 20 12.5 20C11.9477 20 11.5 19.5523 11.5 19L13.5 19ZM5.79289 9.29289L11.7929 3.29289L13.2071 4.70711L7.20711 10.7071L5.79289 9.29289ZM13.2071 3.29289L19.2071 9.29289L17.7929 10.7071L11.7929 4.70711L13.2071 3.29289ZM13.5 4L13.5 19L11.5 19L11.5 4L13.5 4Z"/>
</symbol><symbol id="arrow-btn" viewBox="0 0 7 12">
<path d="M6.3644 6.84859C6.83306 6.37993 6.83303 5.62008 6.36433 5.15146L1.90903 0.696902C1.51854 0.306476 0.88549 0.306502 0.495031 0.696961C0.10455 1.08744 0.10455 1.72054 0.495032 2.11102L3.53883 5.15482C4.00771 5.6237 4.00742 6.38399 3.53818 6.85252L0.495811 9.89026C0.104986 10.2805 0.104744 10.9137 0.495271 11.3043C0.885588 11.6946 1.51842 11.6946 1.90873 11.3043L6.3644 6.84859Z"/>
</symbol><symbol id="arrow-up-down" viewBox="0 0 20 20">
<path d="M10.0437 4.625L8.87527 5.80333L6.77977 3.69V14.6667H5.12717V3.69L3.0325 5.80333L1.86328 4.625L5.95347 0.5L10.0437 4.625ZM18.3067 11.375L14.2165 15.5L10.1263 11.375L11.2947 10.1967L13.391 12.31L13.3902 1.33333H15.0428V12.31L17.1383 10.1967L18.3067 11.375Z"/>
</symbol><symbol id="chat" viewBox="0 0 24 24">
<path d="M16 2C17.1046 2 18 2.89543 18 4L4 4L4 15.1765C2.89543 15.1765 2 14.281 2 13.1765V4C2 2.89543 2.89543 2 4 2H16Z"/>
<path d="M14 22L11.3333 19.1765H8C6.89543 19.1765 6 18.281 6 17.1765V8C6 6.89543 6.89543 6 8 6H20C21.1046 6 22 6.89543 22 8V17.1765C22 18.281 21.1046 19.1765 20 19.1765H16.6667L14 22ZM15.8046 17.1765L20 17.1765V8L8 8V17.1765H12.1954L14 19.0872L15.8046 17.1765Z"/>
</symbol><symbol id="course-desktop-1" viewBox="0 0 25 25">
<path d="M19.8697 5.39109L14.0097 2.78109C13.1497 2.40109 11.8497 2.40109 10.9897 2.78109L5.12969 5.39109C3.64969 6.05109 3.42969 6.95109 3.42969 7.43109C3.42969 7.91109 3.64969 8.81109 5.12969 9.47109L10.9897 12.0811C11.4197 12.2711 11.9597 12.3711 12.4997 12.3711C13.0397 12.3711 13.5797 12.2711 14.0097 12.0811L19.8697 9.47109C21.3497 8.81109 21.5697 7.91109 21.5697 7.43109C21.5697 6.95109 21.3597 6.05109 19.8697 5.39109Z"/>
<path d="M12.5003 17.54C12.1203 17.54 11.7403 17.46 11.3903 17.31L4.65031 14.31C3.62031 13.85 2.82031 12.62 2.82031 11.49C2.82031 11.08 3.15031 10.75 3.56031 10.75C3.97031 10.75 4.30031 11.08 4.30031 11.49C4.30031 12.03 4.75031 12.73 5.25031 12.95L11.9903 15.95C12.3103 16.09 12.6803 16.09 13.0003 15.95L19.7403 12.95C20.2403 12.73 20.6903 12.04 20.6903 11.49C20.6903 11.08 21.0203 10.75 21.4303 10.75C21.8403 10.75 22.1703 11.08 22.1703 11.49C22.1703 12.61 21.3703 13.85 20.3403 14.31L13.6003 17.31C13.2603 17.46 12.8803 17.54 12.5003 17.54Z"/>
<path d="M12.5003 22.5009C12.1203 22.5009 11.7403 22.4209 11.3903 22.2709L4.65031 19.2709C3.54031 18.7809 2.82031 17.6709 2.82031 16.4509C2.82031 16.0409 3.15031 15.7109 3.56031 15.7109C3.97031 15.7109 4.30031 16.0409 4.30031 16.4509C4.30031 17.0809 4.67031 17.6509 5.25031 17.9109L11.9903 20.9109C12.3103 21.0509 12.6803 21.0509 13.0003 20.9109L19.7403 17.9109C20.3103 17.6609 20.6903 17.0809 20.6903 16.4509C20.6903 16.0409 21.0203 15.7109 21.4303 15.7109C21.8403 15.7109 22.1703 16.0409 22.1703 16.4509C22.1703 17.6709 21.4503 18.7709 20.3403 19.2709L13.6003 22.2709C13.2603 22.4209 12.8803 22.5009 12.5003 22.5009Z"/>
</symbol><symbol id="course-desktop-2" viewBox="0 0 24 25">
<path d="M20.5 16.5V19C20.5 20.93 18.93 22.5 17 22.5H7C5.07 22.5 3.5 20.93 3.5 19V18.35C3.5 16.78 4.78 15.5 6.35 15.5H19.5C20.05 15.5 20.5 15.95 20.5 16.5Z"/>
<path d="M15.5 2.5H8.5C4.5 2.5 3.5 3.5 3.5 7.5V15.08C4.26 14.41 5.26 14 6.35 14H19.5C20.05 14 20.5 13.55 20.5 13V7.5C20.5 3.5 19.5 2.5 15.5 2.5ZM13 11.25H8C7.59 11.25 7.25 10.91 7.25 10.5C7.25 10.09 7.59 9.75 8 9.75H13C13.41 9.75 13.75 10.09 13.75 10.5C13.75 10.91 13.41 11.25 13 11.25ZM16 7.75H8C7.59 7.75 7.25 7.41 7.25 7C7.25 6.59 7.59 6.25 8 6.25H16C16.41 6.25 16.75 6.59 16.75 7C16.75 7.41 16.41 7.75 16 7.75Z"/>
</symbol><symbol id="course-desktop-3" viewBox="0 0 24 25">
<path d="M20.0199 11.2004L17.8999 12.5404C17.4999 12.7904 16.9899 12.7304 16.6599 12.4004L12.1299 7.87041C11.7999 7.54041 11.7399 7.03041 11.9899 6.63041L13.3299 4.51041C14.1499 3.22041 15.7899 3.16041 16.9999 4.36041L20.1799 7.54041C21.2999 8.67041 21.2299 10.4304 20.0199 11.2004Z"/>
<path d="M14.7111 20.4498L5.99112 21.4698C5.91344 21.4801 5.83677 21.4874 5.76117 21.4919C5.07604 21.5323 4.90617 20.7247 5.39147 20.2394L7.98112 17.6498C8.30112 17.3398 8.30112 16.8498 7.98112 16.5398C7.68112 16.2298 7.19112 16.2298 6.87112 16.5398L4.28147 19.1294C3.79617 19.6147 2.99604 19.4441 3.03245 18.7588C3.03627 18.6868 3.04247 18.6138 3.05112 18.5398L4.08112 9.81975C4.34112 7.63975 5.14112 6.91975 7.44112 7.05975L8.94112 7.14975C9.43112 7.17975 9.89112 7.38975 10.2411 7.73975L16.7911 14.2898C17.1411 14.6398 17.3511 15.0998 17.3711 15.5898L17.4611 17.0898C17.6911 19.3998 16.9011 20.1998 14.7111 20.4498Z"/>
</symbol><symbol id="course-desktop-4" viewBox="0 0 24 25">
<path d="M18.0204 12.83L16.8004 11.61C16.5104 11.36 16.3404 10.99 16.3304 10.58C16.3104 10.13 16.4904 9.68 16.8204 9.35L18.0204 8.15C19.0604 7.11 19.4504 6.11 19.1204 5.32C18.8004 4.54 17.8104 4.11 16.3504 4.11H5.90039V3.25C5.90039 2.84 5.56039 2.5 5.15039 2.5C4.74039 2.5 4.40039 2.84 4.40039 3.25V21.75C4.40039 22.16 4.74039 22.5 5.15039 22.5C5.56039 22.5 5.90039 22.16 5.90039 21.75V16.87H16.3504C17.7904 16.87 18.7604 16.43 19.0904 15.64C19.4204 14.85 19.0404 13.86 18.0204 12.83Z"/>
</symbol><symbol id="course-desktop-5" viewBox="0 0 24 25">
<path d="M8.28906 6.79C7.86906 6.79 7.53906 6.45 7.53906 6.04V3.25C7.53906 2.84 7.86906 2.5 8.28906 2.5C8.70906 2.5 9.03906 2.84 9.03906 3.25V6.03C9.03906 6.45 8.70906 6.79 8.28906 6.79Z"/>
<path d="M15.7109 6.79C15.2909 6.79 14.9609 6.45 14.9609 6.04V3.25C14.9609 2.83 15.3009 2.5 15.7109 2.5C16.1309 2.5 16.4609 2.84 16.4609 3.25V6.03C16.4609 6.45 16.1309 6.79 15.7109 6.79Z"/>
<path d="M19.57 5C18.91 4.51 17.96 4.98 17.96 5.81V5.91C17.96 7.08 17.12 8.16 15.95 8.28C14.6 8.42 13.46 7.36 13.46 6.04V5C13.46 4.45 13.01 4 12.46 4H11.54C10.99 4 10.54 4.45 10.54 5V6.04C10.54 6.83 10.13 7.53 9.51 7.92C9.42 7.98 9.32 8.03 9.22 8.08C9.13 8.13 9.03 8.17 8.92 8.2C8.8 8.24 8.67 8.27 8.53 8.28C8.37 8.3 8.21 8.3 8.05 8.28C7.91 8.27 7.78 8.24 7.66 8.2C7.56 8.17 7.46 8.13 7.36 8.08C7.26 8.03 7.16 7.98 7.07 7.92C6.44 7.48 6.04 6.72 6.04 5.91V5.81C6.04 5.04 5.22 4.58 4.57 4.91C4.56 4.92 4.55 4.92 4.54 4.93C4.5 4.95 4.47 4.97 4.43 5C4.4 5.03 4.36 5.05 4.33 5.08C4.05 5.3 3.8 5.55 3.59 5.82C3.48 5.94 3.39 6.07 3.31 6.2C3.3 6.21 3.29 6.22 3.28 6.24C3.19 6.37 3.11 6.52 3.04 6.66C3.02 6.68 3.01 6.69 3.01 6.71C2.95 6.83 2.89 6.95 2.85 7.08C2.82 7.13 2.81 7.17 2.79 7.22C2.73 7.37 2.69 7.52 2.65 7.67C2.61 7.81 2.58 7.96 2.56 8.11C2.54 8.22 2.53 8.33 2.52 8.45C2.51 8.59 2.5 8.73 2.5 8.87V17.63C2.5 20.32 4.68 22.5 7.37 22.5H16.63C19.32 22.5 21.5 20.32 21.5 17.63V8.87C21.5 7.28 20.74 5.89 19.57 5ZM12 16.75H10.31V18.5C10.31 18.91 9.97 19.25 9.56 19.25C9.14 19.25 8.81 18.91 8.81 18.5V16.75H7C6.59 16.75 6.25 16.41 6.25 16C6.25 15.59 6.59 15.25 7 15.25H8.81V13.5C8.81 13.09 9.14 12.75 9.56 12.75C9.97 12.75 10.31 13.09 10.31 13.5V15.25H12C12.41 15.25 12.75 15.59 12.75 16C12.75 16.41 12.41 16.75 12 16.75Z"/>
</symbol><symbol id="course-desktop-6" viewBox="0 0 24 25">
<path d="M17.0996 2.5H12.8996C9.81646 2.5 8.37052 3.59409 8.06929 6.23901C8.00627 6.79235 8.46454 7.25 9.02145 7.25H11.0996C15.2996 7.25 17.2496 9.2 17.2496 13.4V15.4781C17.2496 16.035 17.7072 16.4933 18.2606 16.4303C20.9055 16.129 21.9996 14.6831 21.9996 11.6V7.4C21.9996 3.9 20.5996 2.5 17.0996 2.5Z"/>
<path d="M11.1 8.5H6.9C3.4 8.5 2 9.9 2 13.4V17.6C2 21.1 3.4 22.5 6.9 22.5H11.1C14.6 22.5 16 21.1 16 17.6V13.4C16 9.9 14.6 8.5 11.1 8.5ZM12.29 14.15L8.58 17.86C8.44 18 8.26 18.07 8.07 18.07C7.88 18.07 7.7 18 7.56 17.86L5.7 16C5.42 15.72 5.42 15.27 5.7 14.99C5.98 14.71 6.43 14.71 6.71 14.99L8.06 16.34L11.27 13.13C11.55 12.85 12 12.85 12.28 13.13C12.56 13.41 12.57 13.87 12.29 14.15Z"/>
</symbol><symbol id="course-desktop-7" viewBox="0 0 24 25">
<path d="M22 5.5V7.5C22 9.33 21.17 10.32 19.5 10.47C19.34 10.49 19.17 10.5 19 10.5H5C4.83 10.5 4.66 10.49 4.5 10.47C2.83 10.32 2 9.33 2 7.5V5.5C2 3.5 3 2.5 5 2.5H19C21 2.5 22 3.5 22 5.5Z"/>
<path d="M5.5 11.75C4.95 11.75 4.5 12.2 4.5 12.75V19.5C4.5 21.5 5 22.5 7.5 22.5H16.5C19 22.5 19.5 21.5 19.5 19.5V12.75C19.5 12.2 19.05 11.75 18.5 11.75H5.5ZM13.82 16.25H10.18C9.77 16.25 9.43 15.91 9.43 15.5C9.43 15.09 9.77 14.75 10.18 14.75H13.82C14.23 14.75 14.57 15.09 14.57 15.5C14.57 15.91 14.23 16.25 13.82 16.25Z"/>
</symbol><symbol id="course-desktop-8" viewBox="0 0 24 25">
<path d="M17 5.46V12.58C17 14.57 15.59 15.34 13.86 14.3L12.54 13.5C12.24 13.32 11.76 13.32 11.46 13.5L10.14 14.3C8.41 15.34 7 14.57 7 12.58V5.49C7.01 3.5 8.01 2.5 10 2.5H14C15.98 2.5 16.98 3.49 17 5.46Z"/>
<path d="M22 12.4008V15.4308C22 20.4808 20 22.5008 15 22.5008H9C4 22.5008 2 20.4808 2 15.4308V12.4008C2 9.71083 2.57 7.88083 3.85 6.76083C4.5 6.21083 5.5 6.69083 5.5 7.54083V12.5808C5.5 14.0708 6.11 15.2708 7.17 15.8708C8.24 16.4808 9.6 16.3708 10.92 15.5808L12 14.9308L13.09 15.5808C13.83 16.0308 14.6 16.2608 15.32 16.2608C15.86 16.2608 16.37 16.1308 16.83 15.8708C17.89 15.2708 18.5 14.0708 18.5 12.5808V7.53083C18.5 6.68083 19.51 6.20083 20.15 6.76083C21.43 7.88083 22 9.71083 22 12.4008Z"/>
</symbol><symbol id="dashboard" viewBox="0 0 24 24">
<path d="M22 20H11V13H22V20ZM9 20H2V13H9V20ZM22 11H2V4H22V11Z"/>
</symbol><symbol id="download-circle" viewBox="0 0 24 25">
<path d="M5.23852 15.3117C5.63734 16.8002 6.51616 18.1154 7.73867 19.0535C8.96118 19.9915 10.4591 20.5 12 20.5C13.5409 20.5 15.0388 19.9915 16.2613 19.0535C17.4838 18.1154 18.3627 16.8002 18.7615 15.3117" stroke-width="2"/>
<path d="M12 4.5L11.3753 3.71913L12 3.21937L12.6247 3.71913L12 4.5ZM13 13.5C13 14.0523 12.5523 14.5 12 14.5C11.4477 14.5 11 14.0523 11 13.5L13 13.5ZM6.37531 7.71913L11.3753 3.71913L12.6247 5.28087L7.6247 9.28087L6.37531 7.71913ZM12.6247 3.71913L17.6247 7.71913L16.3753 9.28087L11.3753 5.28087L12.6247 3.71913ZM13 4.5L13 13.5L11 13.5L11 4.5L13 4.5Z"/>
</symbol><symbol id="edit" viewBox="0 0 18 19">
<g clip-path="url(#clip0_1271_11029)">
<path d="M8.16601 2.83301H2.33268C1.89065 2.83301 1.46673 3.0086 1.15417 3.32116C0.84161 3.63372 0.666016 4.05765 0.666016 4.49967V16.1663C0.666016 16.6084 0.84161 17.0323 1.15417 17.3449C1.46673 17.6574 1.89065 17.833 2.33268 17.833H13.9993C14.4414 17.833 14.8653 17.6574 15.1779 17.3449C15.4904 17.0323 15.666 16.6084 15.666 16.1663V10.333" stroke-linecap="round" stroke-linejoin="round"/>
<path d="M14.416 1.5832C14.7475 1.25168 15.1972 1.06543 15.666 1.06543C16.1349 1.06543 16.5845 1.25168 16.916 1.5832C17.2475 1.91472 17.4338 2.36436 17.4338 2.8332C17.4338 3.30204 17.2475 3.75168 16.916 4.0832L8.99935 11.9999L5.66602 12.8332L6.49935 9.49986L14.416 1.5832Z" stroke-linecap="round" stroke-linejoin="round"/>
</g>

</symbol><symbol id="grid-big" viewBox="0 0 24 24">
<path d="M19 19H13V13H19V19ZM11 19H5V13H11V19ZM19 11H13V5H19V11ZM11 11H5V5H11V11Z"/>
</symbol><symbol id="help" viewBox="0 0 24 24">
<path d="M12 22C6.47967 21.994 2.00606 17.5204 2 12V11.8C2.10993 6.30455 6.63459 1.92797 12.1307 2.0009C17.6268 2.07382 22.0337 6.5689 21.9978 12.0654C21.9619 17.5618 17.4966 21.9989 12 22ZM11.984 20H12C16.4167 19.9956 19.9942 16.4127 19.992 11.996C19.9898 7.57931 16.4087 4.00002 11.992 4.00002C7.57528 4.00002 3.99421 7.57931 3.992 11.996C3.98979 16.4127 7.56729 19.9956 11.984 20ZM13 18H11V16H13V18ZM13 15H11C10.9684 13.6977 11.6461 12.4808 12.77 11.822C13.43 11.316 14 10.88 14 10C14 8.89545 13.1046 8.00002 12 8.00002C10.8954 8.00002 10 8.89545 10 10H8V9.91002C8.01608 8.48096 8.79333 7.16902 10.039 6.46842C11.2846 5.76781 12.8094 5.78496 14.039 6.51342C15.2685 7.24187 16.0161 8.57096 16 10C15.9284 11.079 15.3497 12.0603 14.44 12.645C13.6177 13.1612 13.0847 14.0328 13 15Z"/>
</symbol><symbol id="instagram" viewBox="0 0 14 15">
<g clip-path="url(#clip0_1307_5773)">
<path d="M7 1.76055C8.87031 1.76055 9.0918 1.76875 9.82734 1.80156C10.5109 1.83164 10.8801 1.94648 11.1262 2.04219C11.4516 2.16797 11.6867 2.32109 11.9301 2.56445C12.1762 2.81055 12.3266 3.04297 12.4523 3.36836C12.548 3.61445 12.6629 3.98633 12.693 4.66719C12.7258 5.40547 12.734 5.62695 12.734 7.49453C12.734 9.36484 12.7258 9.58633 12.693 10.3219C12.6629 11.0055 12.548 11.3746 12.4523 11.6207C12.3266 11.9461 12.1734 12.1813 11.9301 12.4246C11.684 12.6707 11.4516 12.8211 11.1262 12.9469C10.8801 13.0426 10.5082 13.1574 9.82734 13.1875C9.08906 13.2203 8.86758 13.2285 7 13.2285C5.12969 13.2285 4.9082 13.2203 4.17266 13.1875C3.48906 13.1574 3.11992 13.0426 2.87383 12.9469C2.54844 12.8211 2.31328 12.668 2.06992 12.4246C1.82383 12.1785 1.67344 11.9461 1.54766 11.6207C1.45195 11.3746 1.33711 11.0027 1.30703 10.3219C1.27422 9.5836 1.26602 9.36211 1.26602 7.49453C1.26602 5.62422 1.27422 5.40273 1.30703 4.66719C1.33711 3.98359 1.45195 3.61445 1.54766 3.36836C1.67344 3.04297 1.82656 2.80781 2.06992 2.56445C2.31602 2.31836 2.54844 2.16797 2.87383 2.04219C3.11992 1.94648 3.4918 1.83164 4.17266 1.80156C4.9082 1.76875 5.12969 1.76055 7 1.76055ZM7 0.5C5.09961 0.5 4.86172 0.508203 4.11523 0.541016C3.37148 0.573828 2.86016 0.694141 2.41719 0.866406C1.95508 1.04688 1.56406 1.28477 1.17578 1.67578C0.784766 2.06406 0.546875 2.45508 0.366406 2.91445C0.194141 3.36016 0.0738281 3.86875 0.0410156 4.6125C0.00820313 5.36172 0 5.59961 0 7.5C0 9.40039 0.00820313 9.63828 0.0410156 10.3848C0.0738281 11.1285 0.194141 11.6398 0.366406 12.0828C0.546875 12.5449 0.784766 12.9359 1.17578 13.3242C1.56406 13.7125 1.95508 13.9531 2.41445 14.1309C2.86016 14.3031 3.36875 14.4234 4.1125 14.4563C4.85898 14.4891 5.09688 14.4973 6.99727 14.4973C8.89766 14.4973 9.13555 14.4891 9.88203 14.4563C10.6258 14.4234 11.1371 14.3031 11.5801 14.1309C12.0395 13.9531 12.4305 13.7125 12.8188 13.3242C13.207 12.9359 13.4477 12.5449 13.6254 12.0855C13.7977 11.6398 13.918 11.1313 13.9508 10.3875C13.9836 9.64102 13.9918 9.40313 13.9918 7.50274C13.9918 5.60234 13.9836 5.36445 13.9508 4.61797C13.918 3.87422 13.7977 3.36289 13.6254 2.91992C13.4531 2.45508 13.2152 2.06406 12.8242 1.67578C12.4359 1.2875 12.0449 1.04688 11.5855 0.869141C11.1398 0.696875 10.6313 0.576563 9.8875 0.54375C9.13828 0.508203 8.90039 0.5 7 0.5Z"/>
<path d="M7 3.9043C5.01484 3.9043 3.4043 5.51484 3.4043 7.5C3.4043 9.48516 5.01484 11.0957 7 11.0957C8.98516 11.0957 10.5957 9.48516 10.5957 7.5C10.5957 5.51484 8.98516 3.9043 7 3.9043ZM7 9.83242C5.71211 9.83242 4.66758 8.78789 4.66758 7.5C4.66758 6.21211 5.71211 5.16758 7 5.16758C8.28789 5.16758 9.33242 6.21211 9.33242 7.5C9.33242 8.78789 8.28789 9.83242 7 9.83242Z"/>
<path d="M11.5773 3.76206C11.5773 4.22691 11.2 4.60152 10.7379 4.60152C10.273 4.60152 9.89844 4.22417 9.89844 3.76206C9.89844 3.29722 10.2758 2.92261 10.7379 2.92261C11.2 2.92261 11.5773 3.29995 11.5773 3.76206Z"/>
</g>

</symbol><symbol id="layers" viewBox="0 0 24 24">
<path d="M12 23.27L3 16.27L4.62 15.01L11.99 20.74L19.37 15.001L21 16.27L12 23.27ZM12 19L3 12L4.62 10.74L11.99 16.47L19.37 10.73L21 12L12 19ZM12 14.73L4.63 8.99998L3 7.72998L12 0.72998L21 7.72998L19.36 8.99998L12 14.73Z"/>
</symbol><symbol id="logo" viewBox="0 0 44 37">
<path d="M23.2548 26.3394C22.8625 26.5443 22.4307 26.6508 21.993 26.6508C21.5553 26.6508 21.1236 26.5443 20.7313 26.3394L10.5425 20.9682V29.8594C10.543 30.0826 10.6023 30.3013 10.7138 30.491C10.8254 30.6808 10.9848 30.834 11.1742 30.9337L21.4887 36.3729C21.6468 36.4564 21.8213 36.4999 21.9981 36.4999C22.175 36.4999 22.3494 36.4564 22.5076 36.3729L32.822 30.9337C33.0115 30.834 33.1709 30.6808 33.2825 30.491C33.394 30.3013 33.4533 30.0826 33.4537 29.8594V20.9646L23.2548 26.3394Z"/>
<path d="M22.8517 5.63521L20.5966 4.47144L18.6132 5.51346L20.8615 6.68082C21.646 6.2726 22.04 6.06133 22.8517 5.63521Z"/>
<path d="M28.7849 11.4899L30.0245 12.1416L30.7887 11.7406L29.5491 11.0889L28.7849 11.4899Z"/>
<path d="M21.2841 16.3776L20.5132 15.9551L19.7966 16.3346L20.5675 16.7536L21.2841 16.3776Z"/>
<path d="M15.7118 17.004C18.1368 18.311 19.3458 18.9591 21.9304 20.3199L27.918 17.158C25.3606 15.7829 24.1617 15.1312 21.7402 13.8135C19.3458 15.0739 18.1639 15.7006 15.7118 17.004ZM18.602 16.1804L19.176 15.8868L19.6956 15.6111L20.2526 15.3067C20.2854 15.2875 20.321 15.2742 20.3579 15.2673C20.3917 15.274 20.424 15.2873 20.453 15.3067L21.1323 15.6934L21.7911 16.0515L22.4976 16.4096C22.5485 16.4382 22.5757 16.4597 22.5723 16.4705C22.5689 16.4812 22.5451 16.4991 22.501 16.5242L21.91 16.8106L21.3904 17.0828L20.8504 17.3943C20.8191 17.4135 20.7844 17.4257 20.7485 17.4301C20.7111 17.4229 20.6754 17.4083 20.6432 17.3872L19.9639 17.004L19.3051 16.6459L18.5952 16.2878C18.5443 16.2592 18.5239 16.2413 18.5273 16.227C18.5307 16.2126 18.5579 16.2055 18.602 16.1804V16.1804ZM17.1349 17.0112C17.0706 17.0013 17.0071 16.9869 16.9447 16.9682C16.8869 16.936 16.8903 16.8894 16.9447 16.8285C17.0805 16.6996 17.2639 16.5457 17.4949 16.3666C17.6817 16.4669 17.9737 16.5994 18.3643 16.7605C19.2507 17.1186 20.0896 17.4266 20.8741 17.6593C20.7171 17.7111 20.5629 17.772 20.4123 17.8419C20.3058 17.8996 20.1911 17.9384 20.0726 17.9565C19.9571 17.9393 19.8434 17.9105 19.733 17.8706C18.9756 17.6342 18.293 17.4051 17.6783 17.1795C17.5006 17.1117 17.3191 17.0555 17.1349 17.0112V17.0112ZM24.0055 16.073L24.1617 15.987C24.3967 15.8594 24.6236 15.7159 24.841 15.5574C25.0982 15.7014 25.3477 15.8604 25.5882 16.0336C25.7104 16.1231 25.7512 16.1876 25.6832 16.2198C25.6219 16.2508 25.5568 16.2725 25.4897 16.2843C25.301 16.3406 25.1187 16.4186 24.9463 16.517L24.8851 16.5528L25.6968 16.9897C25.7729 16.8096 25.8189 16.617 25.8327 16.4203C25.8329 16.4014 25.8403 16.3834 25.8531 16.3702C25.9003 16.3619 25.9485 16.3619 25.9957 16.3702L26.5629 16.4812C26.6003 16.487 26.6368 16.4978 26.6716 16.5134C26.6987 16.5134 26.7089 16.5564 26.7089 16.603C26.713 16.7767 26.6889 16.9499 26.6376 17.115C26.6348 17.1284 26.6294 17.141 26.6218 17.1521C26.6143 17.1631 26.6046 17.1725 26.5935 17.1795C26.5364 17.1924 26.4773 17.1924 26.4202 17.1795L25.8802 17.0864L26.3557 17.3299L26.5119 17.4086C26.5697 17.4373 26.6002 17.4624 26.6002 17.4731C26.5776 17.4985 26.5497 17.5181 26.5187 17.5304L25.9855 17.8133C25.9512 17.8368 25.911 17.8493 25.87 17.8491C25.8319 17.8391 25.7953 17.8234 25.7614 17.8025L24.481 17.0864L24.1991 16.936C23.6981 17.2352 23.2149 17.5665 22.7523 17.9279C22.9934 17.8921 23.2515 17.8419 23.5232 17.7846C23.852 17.7137 24.1764 17.6216 24.4946 17.5089C24.667 17.6823 24.8281 17.8677 24.9768 18.0639C25.0176 18.1356 25.0108 18.1857 24.9565 18.2143C24.8752 18.2243 24.7932 18.2243 24.7119 18.2143C24.464 18.2321 24.2177 18.2692 23.9749 18.3253C23.3469 18.449 22.7132 18.5386 22.0764 18.5939C21.8285 18.9233 21.7674 19.1203 21.8896 19.1847C22.0119 19.2492 22.433 19.1847 23.0545 18.9412C23.0603 19.0853 23.0902 19.2271 23.1428 19.3602C23.1904 19.4676 23.1904 19.5392 23.1428 19.5643C23.0546 19.6025 22.9638 19.6337 22.8711 19.6574C22.2917 19.8743 21.6567 19.8577 21.0881 19.6109C20.9958 19.58 20.9121 19.5258 20.8443 19.4531C20.7764 19.3803 20.7264 19.2912 20.6986 19.1934C20.6708 19.0957 20.6661 18.9922 20.6848 18.8921C20.7036 18.792 20.7453 18.6982 20.8062 18.619C20.1996 18.6054 19.5941 18.5564 18.9926 18.4722C18.8833 18.4613 18.7759 18.4348 18.6734 18.3934C18.6292 18.3719 18.6156 18.3039 18.6292 18.1928C18.642 18.0456 18.634 17.8972 18.6054 17.7524C19.4737 17.9415 20.3578 18.0375 21.2443 18.0389C21.8744 17.4162 22.5788 16.8829 23.3398 16.4526L21.8115 15.6182L20.5413 14.9414C20.487 14.9128 20.4598 14.8913 20.4632 14.8806C20.4666 14.8698 20.487 14.8519 20.5311 14.8269L21.0643 14.5476C21.0997 14.5253 21.139 14.5106 21.1798 14.5046C21.2169 14.5126 21.2525 14.5271 21.2851 14.5476L22.5247 15.2422L24.0055 16.073Z"/>
<path d="M32.3571 10.9205L31.1141 10.2688L30.3669 10.6591L31.6066 11.3144L32.3571 10.9205Z"/>
<path d="M24.218 8.44253L26.215 7.39334L23.9157 6.19019L21.9255 7.23937L24.218 8.44253Z"/>
<path d="M43.5607 11.7798L22.3273 0.586079C22.2221 0.529494 22.1057 0.5 21.9877 0.5C21.8696 0.5 21.7532 0.529494 21.648 0.586079L0.414573 11.7798C0.290058 11.8451 0.185292 11.9457 0.112051 12.0703C0.0388112 12.1949 0 12.3386 0 12.4852C0 12.6318 0.0388112 12.7755 0.112051 12.9001C0.185292 13.0248 0.290058 13.1254 0.414573 13.1906L21.648 24.3843C21.7532 24.4409 21.8696 24.4704 21.9877 24.4704C22.1057 24.4704 22.2221 24.4409 22.3273 24.3843L43.5607 13.1906C43.6852 13.1254 43.79 13.0248 43.8632 12.9001C43.9365 12.7755 43.9753 12.6318 43.9753 12.4852C43.9753 12.3386 43.9365 12.1949 43.8632 12.0703C43.79 11.9457 43.6852 11.8451 43.5607 11.7798V11.7798ZM16.1698 5.62791L18.0106 4.68614L18.9955 4.1705L20.354 3.45433C20.3904 3.43139 20.4309 3.41675 20.4729 3.41137C20.5117 3.42111 20.5493 3.43552 20.585 3.45433L21.9741 4.19199L23.8148 5.14449L24.4941 4.78641C24.9182 4.57608 25.3289 4.33685 25.7235 4.07024C26.1617 4.30658 26.5047 4.51426 26.7594 4.68614C26.8579 4.7506 26.8715 4.80431 26.8002 4.84012C26.7204 4.87963 26.6358 4.90735 26.5488 4.92248C26.2346 5.016 25.9315 5.14695 25.6454 5.31279L24.8949 5.70669L26.8036 6.70216L28.1417 7.3861C28.196 7.41475 28.2198 7.43623 28.2164 7.44697C28.213 7.45771 28.1892 7.47562 28.1383 7.50069L26.9054 8.13091L25.7915 8.71459L23.9439 9.67784C23.9123 9.69706 23.8779 9.71039 23.842 9.71722C23.8048 9.71172 23.7689 9.69833 23.7367 9.67784L22.9148 9.24456C22.8639 9.21591 22.8435 9.19442 22.8435 9.18368C22.8617 9.16107 22.8851 9.14381 22.9114 9.13355L23.3054 8.92586L21.0163 7.71912L19.8752 8.31712L18.2076 9.2159C18.1761 9.23737 18.1398 9.24972 18.1023 9.25172C18.0678 9.24407 18.0345 9.23078 18.0038 9.21233L17.1242 8.74324C17.0699 8.7146 17.0461 8.69311 17.0495 8.68236C17.0529 8.67162 17.0733 8.65729 17.114 8.63223L18.8121 7.76925L19.9669 7.16409L17.7219 5.98958L17.2974 6.21159C17.2616 6.23517 17.2207 6.24872 17.1785 6.25097C17.1399 6.24455 17.103 6.22993 17.0699 6.208L16.1868 5.74965C16.1325 5.72101 16.1087 5.69953 16.1121 5.6852C16.1155 5.67088 16.1223 5.65297 16.1698 5.62791V5.62791ZM10.5932 8.29921L11.2487 7.94113C11.2768 7.92143 11.31 7.91142 11.3437 7.91248C11.3845 7.92087 11.4236 7.93662 11.4592 7.95904L12.8008 8.69669L14.8827 9.82107L15.0287 9.74587C15.2951 9.61327 15.5488 9.45377 15.7861 9.26961C16.1257 9.44866 16.4653 9.64561 16.8049 9.85688C16.9 9.91775 16.9204 9.96431 16.8593 9.99654C16.8256 10.0117 16.7902 10.0226 16.754 10.0288L16.6351 10.0538C16.442 10.1146 16.2554 10.1962 16.0781 10.2973L15.9253 10.3797L18.0955 11.5578L19.3657 12.231C19.4337 12.2704 19.4371 12.3026 19.3657 12.3348L18.6865 12.6929C18.6516 12.7128 18.6137 12.7262 18.5744 12.7323C18.5395 12.7259 18.5061 12.7125 18.4759 12.6929L17.2431 11.9982C15.2053 10.8774 14.1593 10.3116 11.9755 9.13355L10.6 8.41738C10.5422 8.38516 10.5117 8.36367 10.5117 8.34935C10.5117 8.33502 10.5524 8.32428 10.5932 8.29921V8.29921ZM12.4577 15.0025C12.1965 15.1514 11.902 15.2231 11.6053 15.2102C11.093 15.1254 10.6008 14.9382 10.1551 14.6588C9.99883 14.5764 9.92412 14.5155 9.92751 14.4869C9.93091 14.4583 9.99204 14.401 10.1075 14.3114C10.2475 14.2089 10.3636 14.0742 10.4471 13.9175C10.7053 14.0858 10.9498 14.2327 11.1841 14.358C11.2645 14.4038 11.3543 14.4277 11.4456 14.4277C11.537 14.4277 11.6268 14.4038 11.7072 14.358L12.9128 13.717L11.286 12.8254L9.62524 13.717C9.12939 13.9892 8.87806 14.1252 8.37202 14.4081C8.33684 14.4309 8.29748 14.4455 8.25655 14.4511C8.21985 14.4416 8.18447 14.4271 8.15126 14.4081L7.31918 13.9677C7.26484 13.939 7.24107 13.9176 7.24447 13.8996C7.24786 13.8817 7.26824 13.871 7.31578 13.8459L8.61316 13.1692L10.2807 12.2775L8.85429 11.4683L7.43126 12.2274L6.64672 12.6714C6.61521 12.6929 6.5789 12.7052 6.54144 12.7072C6.5027 12.7037 6.46538 12.6901 6.43275 12.6678L5.58029 12.2131C5.52595 12.1844 5.50218 12.1665 5.50218 12.1522C5.50218 12.1379 5.53275 12.1236 5.5769 12.0985L6.46672 11.6401L7.76409 10.9455L8.5792 10.4943C8.61421 10.4685 8.6554 10.4536 8.69807 10.4513C8.73668 10.4577 8.77365 10.4723 8.80674 10.4943L10.1822 11.2641L11.1637 11.7977L12.1011 11.3C11.0483 10.7234 10.5117 10.4334 9.41467 9.83898L8.29051 10.437C8.2588 10.4575 8.22243 10.4686 8.18523 10.4692C8.14649 10.4633 8.10941 10.4486 8.07654 10.4262L7.26144 9.98578C7.2071 9.95714 7.17654 9.93565 7.17994 9.92133C7.18333 9.90701 7.2037 9.89269 7.24786 9.86762L8.26673 9.34839L8.5792 9.18368L9.10222 8.88647C9.13445 8.86665 9.17037 8.85444 9.20751 8.85066C9.24564 8.86067 9.28223 8.87634 9.31618 8.89722L10.6441 9.63487L11.5951 10.1505C11.7389 9.95597 11.8609 9.74447 11.9585 9.52028C11.9689 9.49869 11.9855 9.48114 12.006 9.47015C12.0714 9.45626 12.1393 9.46504 12.1996 9.49521L13.0317 9.77094C13.0705 9.78049 13.1082 9.79492 13.1438 9.81391C13.1524 9.81796 13.16 9.82394 13.1662 9.83145C13.1724 9.83896 13.177 9.8478 13.1795 9.85736C13.1821 9.86692 13.1827 9.87695 13.1812 9.88677C13.1797 9.89658 13.1762 9.90594 13.1709 9.91417C13.0213 10.2008 12.8461 10.4717 12.6479 10.7234L14.3053 11.6294C14.6211 11.5793 14.954 11.5112 15.2868 11.4396C15.4763 11.4037 15.6619 11.3473 15.8404 11.2713C16.1022 11.4706 16.3529 11.6859 16.591 11.9159C16.6385 11.9732 16.6385 12.0125 16.591 12.0376C16.5167 12.0641 16.4383 12.0751 16.36 12.0698C16.2408 12.066 16.1215 12.0732 16.0034 12.0913L15.3242 12.1987L16.2548 12.7072L17.5114 13.3804C17.5691 13.4091 17.5963 13.4341 17.5963 13.4449C17.5963 13.4556 17.5725 13.4735 17.5284 13.495L17.0291 13.7385L16.6521 13.939L15.6706 14.4797C15.6357 14.4997 15.5978 14.513 15.5585 14.5191C15.5188 14.5108 15.4809 14.495 15.4464 14.4726L14.7094 14.0679C14.6585 14.0429 14.6347 14.0214 14.6381 14.0107C14.6415 13.9999 14.6653 13.982 14.7162 13.9534L15.837 13.3589L13.086 11.8514L12.1487 12.3491C12.6275 12.607 12.8619 12.7394 13.334 12.9973L14.6755 13.7134C14.723 13.7385 14.7468 13.76 14.7434 13.7707C14.74 13.7815 14.7129 13.803 14.6619 13.828L13.7313 14.3043L13.103 14.6373L12.4577 15.0025ZM29.7108 17.3158L27.4522 18.4867L25.3092 19.6218L21.8144 21.4946C21.7815 21.5149 21.7438 21.5248 21.7058 21.5232C21.6652 21.516 21.6262 21.5015 21.5903 21.4803L20.7684 21.0542C20.714 21.0255 20.6869 21.004 20.6869 20.9933C20.6869 20.9825 20.7107 20.9682 20.7548 20.9432L21.1182 20.7534C18.5201 19.3962 17.3076 18.7517 14.8691 17.4554L14.4785 17.6595C14.4456 17.6819 14.4086 17.6966 14.3698 17.7025C14.333 17.6936 14.2975 17.6791 14.2645 17.6595L13.4902 17.2513C13.4426 17.2262 13.4223 17.2083 13.4223 17.194C13.4223 17.1797 13.4494 17.1654 13.497 17.1403L17.165 15.2067L18.9955 14.2398L21.5054 12.8934C21.5402 12.8706 21.5799 12.857 21.6208 12.854C21.6581 12.8595 21.6939 12.8729 21.7261 12.8934L22.9556 13.5809C25.0782 14.734 26.1379 15.3069 28.3624 16.4993L29.7006 17.194C29.7583 17.2262 29.7889 17.2477 29.7855 17.2621C29.7821 17.2764 29.7583 17.2907 29.7108 17.3158V17.3158ZM37.3422 12.8147L36.7444 13.1298C36.7091 13.1506 36.6694 13.1616 36.6289 13.162C36.5881 13.1559 36.5489 13.1413 36.5135 13.119L36.3946 13.051C36.1535 12.9149 35.8886 12.7753 35.6067 12.6249L34.8595 13.0188L35.2908 13.2443L36.5712 13.8925C36.6391 13.9283 36.6391 13.9605 36.5712 13.9999L35.9293 14.3365C35.896 14.3572 35.859 14.3706 35.8206 14.3759C35.7834 14.3753 35.7471 14.3642 35.7153 14.3437L34.4723 13.6741L34.041 13.4485L33.2734 13.8531L34.2923 14.3652C34.3433 14.3938 34.3704 14.4117 34.367 14.426C34.3636 14.4404 34.3433 14.4547 34.2991 14.4762L33.715 14.7841C33.6811 14.8037 33.6444 14.817 33.6063 14.8235C33.568 14.8177 33.5312 14.8043 33.4976 14.7841L32.1391 14.0679L30.2508 13.0474L29.6428 13.3661L32.0644 14.6445L33.3923 15.3248C33.4466 15.3535 33.4704 15.3714 33.4704 15.3857C33.4704 15.4 33.4432 15.4143 33.4025 15.4358L32.7436 15.7939C32.7114 15.8137 32.6755 15.8259 32.6383 15.8297C32.6002 15.8232 32.5635 15.8099 32.5297 15.7903L31.2391 15.0742L28.8243 13.7922L27.8054 14.3473C27.7721 14.3679 27.7351 14.3813 27.6968 14.3866C27.6601 14.3771 27.6247 14.3627 27.5915 14.3437L26.7968 13.9175C26.7356 13.8853 26.739 13.8495 26.7968 13.8137L27.853 13.2766L25.625 12.0877L24.3718 11.4396C24.3209 11.411 24.2937 11.3895 24.2971 11.3787C24.3005 11.368 24.3243 11.3501 24.365 11.3286L25.0137 10.9884C25.045 10.9693 25.0797 10.9571 25.1156 10.9526C25.1524 10.9598 25.188 10.9731 25.2209 10.992L26.4368 11.6616L28.6715 12.8469L29.276 12.5318L27.5066 11.5936L26.1752 10.924C26.1243 10.8953 26.0971 10.8738 26.1005 10.8631C26.1039 10.8524 26.1277 10.8344 26.1718 10.8094L26.7662 10.4979C26.7961 10.4815 26.8293 10.473 26.863 10.473C26.8967 10.473 26.9299 10.4815 26.9598 10.4979L27.8734 11.0028L28.6341 10.6017L28.2673 10.4083L27.0549 9.78884C27.0107 9.76736 26.9937 9.74587 26.9971 9.73513C27.0005 9.72439 27.0243 9.70649 27.0719 9.68142L27.707 9.34839C27.7377 9.33084 27.7722 9.32165 27.8071 9.32165C27.8421 9.32165 27.8766 9.33084 27.9073 9.34839L29.0824 9.98578L29.4526 10.1792L30.1998 9.78884L29.5613 9.46657L29.3677 9.36989C29.3168 9.34482 29.2862 9.31975 29.2896 9.30901C29.293 9.29827 29.3168 9.28037 29.3609 9.2553L29.9621 8.94018C29.9951 8.9194 30.0324 8.90713 30.0708 8.90437C30.1096 8.90969 30.1468 8.92439 30.1794 8.94734L31.4666 9.64203L35.9531 11.9982L37.332 12.7144C37.3897 12.743 37.4203 12.7681 37.4203 12.7788C37.4203 12.7896 37.3829 12.7932 37.3422 12.8147ZM39.5803 12.3491L38.9384 12.6822C38.9044 12.7041 38.866 12.7176 38.8263 12.7215C38.7883 12.7128 38.7517 12.6983 38.7176 12.6786L37.4576 12.0018L36.2622 11.3716L35.8614 11.6043C35.8285 11.6228 35.7917 11.6325 35.7544 11.6325C35.7171 11.6325 35.6804 11.6228 35.6474 11.6043L34.8765 11.1997C34.8199 11.171 34.7927 11.1496 34.795 11.1352C34.795 11.1352 34.8187 11.1066 34.8595 11.0851L35.0259 11.0063L35.3044 10.8738L33.484 9.91776L33.0697 10.1541C33.0353 10.1746 32.997 10.1868 32.9576 10.1899C32.922 10.1802 32.8878 10.1657 32.8557 10.1469L32.0983 9.74946C32.0236 9.71007 32.0236 9.67426 32.0983 9.63845L32.2715 9.5525L32.55 9.4236L31.4598 8.84708L30.2236 8.21686C30.176 8.19179 30.1489 8.17031 30.1523 8.15956C30.1557 8.14882 30.1794 8.12733 30.2236 8.10584L30.8791 7.74776C30.9179 7.7249 30.9606 7.7103 31.0047 7.70479C31.0398 7.71064 31.0733 7.72406 31.1032 7.74418L32.2987 8.3959L33.3889 8.96883C33.6488 8.83137 33.9016 8.67957 34.1463 8.51406C34.4548 8.6807 34.7552 8.86356 35.0463 9.06193C35.1278 9.11564 35.138 9.15862 35.0802 9.19085C35.0175 9.21851 34.951 9.23542 34.8833 9.24097C34.6896 9.28851 34.5033 9.36445 34.3297 9.46657L36.1433 10.4262C36.409 10.297 36.6635 10.1436 36.904 9.96788C37.1825 10.1219 37.4848 10.3081 37.8176 10.5229C37.9025 10.5838 37.9195 10.6268 37.8652 10.6554C37.799 10.6826 37.729 10.6983 37.658 10.702C37.4633 10.7512 37.2759 10.8283 37.101 10.9311L38.2931 11.5614L39.5871 12.2202C39.6448 12.2489 39.6686 12.2704 39.6652 12.2847C39.6431 12.314 39.6137 12.3363 39.5803 12.3491V12.3491Z"/>
<path d="M32.5792 11.8263L33.9072 12.5245L34.6578 12.1306L33.3264 11.4324L32.5792 11.8263Z"/>
<path d="M30.991 12.6535L32.319 13.3518L33.0865 12.9507L31.7586 12.2524L30.991 12.6535Z"/>
<rect x="24.249" y="10.5342" width="11.2077" height="5.37126"/>
<rect x="22.8895" y="7.66943" width="11.2077" height="5.37126"/>
<rect x="24.5889" y="8.3855" width="11.2077" height="5.37126"/>
<rect x="26.9681" y="9.45972" width="11.2077" height="5.37126"/>
<rect x="28.6675" y="10.5342" width="11.2077" height="3.58084"/>
<rect x="18.8171" y="15.189" width="11.2077" height="3.58084"/>
<rect x="16.4379" y="18.054" width="10.5284" height="3.58084"/>
<rect x="12.7023" y="15.189" width="11.2077" height="3.58084"/>
<rect x="15.7582" y="12.6826" width="11.2077" height="3.58084"/>
<rect x="6.93048" y="11.9663" width="11.2077" height="3.58084"/>
<rect x="3.87463" y="10.5342" width="11.2077" height="3.58084"/>
<rect x="6.58752" y="9.10181" width="11.2077" height="3.58084"/>
<rect x="8.62683" y="7.66919" width="11.2077" height="3.58084"/>
<rect x="12.0256" y="9.45972" width="11.2077" height="3.58084"/>
<rect x="15.7582" y="6.59497" width="11.2077" height="3.58084"/>
<rect x="18.8171" y="6.23682" width="11.2077" height="3.58084"/>
<rect x="16.7778" y="4.80469" width="11.2077" height="3.58084"/>
<rect x="16.0981" y="4.44653" width="11.2077" height="3.58084"/>
<rect x="17.4575" y="3.01416" width="6.79253" height="3.58084"/>
<rect x="20.5134" y="3.73047" width="6.79253" height="3.58084"/>
</symbol><symbol id="refresh" viewBox="0 0 24 24">
<path d="M4 20V13H11L7.783 16.22C8.89296 17.355 10.4125 17.9964 12 18C14.5394 17.9962 16.8015 16.3942 17.648 14H17.666C17.7805 13.6746 17.8672 13.34 17.925 13H19.937C19.4331 16.9999 16.0315 19.9998 12 20H11.99C9.86876 20.0063 7.83316 19.1637 6.337 17.66L4 20ZM6.074 11H4.062C4.56575 7.00157 7.965 4.0021 11.995 3.99992H12C14.1216 3.99313 16.1577 4.8358 17.654 6.33996L20 3.99992V11H13L16.222 7.77996C15.1109 6.64361 13.5893 6.0021 12 5.99996C9.46055 6.00371 7.19848 7.60574 6.352 9.99996H6.334C6.21856 10.3251 6.13189 10.6597 6.075 11H6.074Z"/>
</symbol><symbol id="structure" viewBox="0 0 24 24">
<rect x="4" y="4" width="16" height="7" rx="1"/>
<path d="M4 16C4 15.0572 4 14.5858 4.29289 14.2929C4.58579 14 5.05719 14 6 14H10V18C10 18.9428 10 19.4142 9.70711 19.7071C9.41421 20 8.94281 20 8 20H6C5.05719 20 4.58579 20 4.29289 19.7071C4 19.4142 4 18.9428 4 18V16Z"/>
<path d="M14 14H18C18.9428 14 19.4142 14 19.7071 14.2929C20 14.5858 20 15.0572 20 16V18C20 18.9428 20 19.4142 19.7071 19.7071C19.4142 20 18.9428 20 18 20H16C15.0572 20 14.5858 20 14.2929 19.7071C14 19.4142 14 18.9428 14 18V14Z"/>
</symbol><symbol id="telegram" viewBox="0 0 14 15">
<g clip-path="url(#clip0_1307_5778)">
<path fill-rule="evenodd" clip-rule="evenodd" d="M14 7.5C14 11.366 10.866 14.5 7 14.5C3.13401 14.5 0 11.366 0 7.5C0 3.63401 3.13401 0.5 7 0.5C10.866 0.5 14 3.63401 14 7.5ZM7.25085 5.66771C6.56999 5.9509 5.20925 6.53703 3.1686 7.42611C2.83724 7.55788 2.66365 7.68679 2.64785 7.81284C2.62114 8.02587 2.88792 8.10976 3.25119 8.22399C3.30061 8.23953 3.35181 8.25563 3.4043 8.27269C3.7617 8.38887 4.24248 8.52479 4.49242 8.53019C4.71913 8.53508 4.97217 8.44162 5.25154 8.24978C7.15818 6.96275 8.14239 6.31222 8.20418 6.2982C8.24778 6.2883 8.30818 6.27586 8.34911 6.31224C8.39004 6.34862 8.38602 6.41752 8.38168 6.436C8.35526 6.54867 7.30807 7.52222 6.76615 8.02604C6.59721 8.1831 6.47738 8.29451 6.45288 8.31996C6.398 8.37695 6.34207 8.43087 6.28832 8.48269C5.95628 8.80278 5.70728 9.04281 6.30211 9.43479C6.58796 9.62316 6.81669 9.77893 7.04489 9.93433C7.2941 10.104 7.54267 10.2733 7.86427 10.4841C7.94621 10.5379 8.02447 10.5936 8.10069 10.648C8.39071 10.8547 8.65127 11.0405 8.97318 11.0109C9.16023 10.9937 9.35344 10.8178 9.45156 10.2932C9.68346 9.0535 10.1393 6.36743 10.2446 5.26057C10.2539 5.16359 10.2422 5.03948 10.2329 4.985C10.2236 4.93052 10.2041 4.8529 10.1333 4.79543C10.0494 4.72738 9.91995 4.71303 9.86205 4.71405C9.59876 4.71869 9.19482 4.85914 7.25085 5.66771Z"/>
</g>

</symbol><symbol id="trash" viewBox="0 0 16 19">
<g clip-path="url(#clip0_1271_11034)">
<path d="M0.5 4.5H2.16667H15.5" stroke-linecap="round" stroke-linejoin="round"/>
<path d="M4.66602 4.50033V2.83366C4.66602 2.39163 4.84161 1.96771 5.15417 1.65515C5.46673 1.34259 5.89066 1.16699 6.33268 1.16699H9.66602C10.108 1.16699 10.532 1.34259 10.8445 1.65515C11.1571 1.96771 11.3327 2.39163 11.3327 2.83366V4.50033M13.8327 4.50033V16.167C13.8327 16.609 13.6571 17.0329 13.3445 17.3455C13.032 17.6581 12.608 17.8337 12.166 17.8337H3.83268C3.39065 17.8337 2.96673 17.6581 2.65417 17.3455C2.34161 17.0329 2.16602 16.609 2.16602 16.167V4.50033H13.8327Z" stroke-linecap="round" stroke-linejoin="round"/>
<path d="M6.33398 8.66699V13.667" stroke-linecap="round" stroke-linejoin="round"/>
<path d="M9.66602 8.66699V13.667" stroke-linecap="round" stroke-linejoin="round"/>
</g>

</symbol><symbol id="user-heart" viewBox="0 0 24 24">
<path d="M2 19H4C4 16.7909 5.79086 15 8 15C10.2091 15 12 16.7909 12 19H14C14 15.6863 11.3137 13 8 13C4.68629 13 2 15.6863 2 19Z"/>
<path d="M4 8C4 5.79086 5.79086 4 8 4C10.2091 4 12 5.79086 12 8C11.9972 10.208 10.208 11.9972 8 12C5.79086 12 4 10.2091 4 8ZM6.00223 7.97134C5.98658 9.06383 6.85057 9.9667 7.94269 9.99912C9.03481 10.0315 9.95083 9.1815 10 8.09V8C10 6.89543 9.10457 6 8 6C6.9074 6.00111 6.01789 6.87885 6.00223 7.97134Z"/>
<path d="M18.339 14.9994C18.131 14.8144 17.896 14.6214 17.647 14.4174L17.6 14.3794L17.5944 14.3749C16.4384 13.4317 15 12.2581 15 10.7994C15.0002 10.3154 15.1953 9.85178 15.5413 9.51329C15.8873 9.1748 16.3551 8.98994 16.839 9.00042C17.4112 8.99888 17.9569 9.24153 18.339 9.66742C18.7212 9.24163 19.2668 8.99901 19.839 9.00042C20.3224 8.99102 20.7893 9.17651 21.1345 9.5151C21.4797 9.85369 21.6741 10.3169 21.674 10.8004C21.674 12.2652 20.2245 13.4474 19.059 14.398L19.056 14.4004L18.999 14.4474L18.9808 14.4623C18.7505 14.6508 18.5329 14.829 18.338 15.0014L18.339 14.9994Z"/>
</symbol><symbol id="vk" viewBox="0 0 14 15">
<g clip-path="url(#clip0_1307_5782)">
<path fill-rule="evenodd" clip-rule="evenodd" d="M0.984121 1.48412C0 2.46824 0 4.05215 0 7.22V7.78C0 10.9478 0 12.5317 0.984121 13.5159C1.96824 14.5 3.55215 14.5 6.72 14.5H7.28C10.4478 14.5 12.0317 14.5 13.0159 13.5159C14 12.5317 14 10.9478 14 7.78V7.22C14 4.05215 14 2.46824 13.0159 1.48412C12.0317 0.5 10.4478 0.5 7.28 0.5H6.72C3.55215 0.5 1.96824 0.5 0.984121 1.48412ZM2.36253 4.75836C2.43837 8.39836 4.25836 10.5859 7.4492 10.5859H7.63006V8.50336C8.80256 8.62003 9.68917 9.47753 10.045 10.5859H11.7017C11.2467 8.9292 10.0508 8.01336 9.30414 7.66336C10.0508 7.2317 11.1008 6.1817 11.3516 4.75836H9.84661C9.51994 5.91336 8.55172 6.96336 7.63006 7.06253V4.75836H6.125V8.79503C5.19167 8.5617 4.01336 7.43003 3.96086 4.75836H2.36253Z"/>
</g>

</symbol></svg>