<svg width="24" height="25" viewBox="0 0 24 25" fill="none" xmlns="http://www.w3.org/2000/svg">
<path d="M22 5.5V7.5C22 9.33 21.17 10.32 19.5 10.47C19.34 10.49 19.17 10.5 19 10.5H5C4.83 10.5 4.66 10.49 4.5 10.47C2.83 10.32 2 9.33 2 7.5V5.5C2 3.5 3 2.5 5 2.5H19C21 2.5 22 3.5 22 5.5Z" />
<path d="M5.5 11.75C4.95 11.75 4.5 12.2 4.5 12.75V19.5C4.5 21.5 5 22.5 7.5 22.5H16.5C19 22.5 19.5 21.5 19.5 19.5V12.75C19.5 12.2 19.05 11.75 18.5 11.75H5.5ZM13.82 16.25H10.18C9.77 16.25 9.43 15.91 9.43 15.5C9.43 15.09 9.77 14.75 10.18 14.75H13.82C14.23 14.75 14.57 15.09 14.57 15.5C14.57 15.91 14.23 16.25 13.82 16.25Z" />
</svg>
