<svg width="24" height="25" viewBox="0 0 24 25" fill="none" xmlns="http://www.w3.org/2000/svg">
<path d="M20.5 16.5V19C20.5 20.93 18.93 22.5 17 22.5H7C5.07 22.5 3.5 20.93 3.5 19V18.35C3.5 16.78 4.78 15.5 6.35 15.5H19.5C20.05 15.5 20.5 15.95 20.5 16.5Z"/>
<path d="M15.5 2.5H8.5C4.5 2.5 3.5 3.5 3.5 7.5V15.08C4.26 14.41 5.26 14 6.35 14H19.5C20.05 14 20.5 13.55 20.5 13V7.5C20.5 3.5 19.5 2.5 15.5 2.5ZM13 11.25H8C7.59 11.25 7.25 10.91 7.25 10.5C7.25 10.09 7.59 9.75 8 9.75H13C13.41 9.75 13.75 10.09 13.75 10.5C13.75 10.91 13.41 11.25 13 11.25ZM16 7.75H8C7.59 7.75 7.25 7.41 7.25 7C7.25 6.59 7.59 6.25 8 6.25H16C16.41 6.25 16.75 6.59 16.75 7C16.75 7.41 16.41 7.75 16 7.75Z"/>
</svg>
