<svg width="25" height="25" viewBox="0 0 25 25" fill="none" xmlns="http://www.w3.org/2000/svg">
<path d="M19.8697 5.39109L14.0097 2.78109C13.1497 2.40109 11.8497 2.40109 10.9897 2.78109L5.12969 5.39109C3.64969 6.05109 3.42969 6.95109 3.42969 7.43109C3.42969 7.91109 3.64969 8.81109 5.12969 9.47109L10.9897 12.0811C11.4197 12.2711 11.9597 12.3711 12.4997 12.3711C13.0397 12.3711 13.5797 12.2711 14.0097 12.0811L19.8697 9.47109C21.3497 8.81109 21.5697 7.91109 21.5697 7.43109C21.5697 6.95109 21.3597 6.05109 19.8697 5.39109Z"/>
<path d="M12.5003 17.54C12.1203 17.54 11.7403 17.46 11.3903 17.31L4.65031 14.31C3.62031 13.85 2.82031 12.62 2.82031 11.49C2.82031 11.08 3.15031 10.75 3.56031 10.75C3.97031 10.75 4.30031 11.08 4.30031 11.49C4.30031 12.03 4.75031 12.73 5.25031 12.95L11.9903 15.95C12.3103 16.09 12.6803 16.09 13.0003 15.95L19.7403 12.95C20.2403 12.73 20.6903 12.04 20.6903 11.49C20.6903 11.08 21.0203 10.75 21.4303 10.75C21.8403 10.75 22.1703 11.08 22.1703 11.49C22.1703 12.61 21.3703 13.85 20.3403 14.31L13.6003 17.31C13.2603 17.46 12.8803 17.54 12.5003 17.54Z"/>
<path d="M12.5003 22.5009C12.1203 22.5009 11.7403 22.4209 11.3903 22.2709L4.65031 19.2709C3.54031 18.7809 2.82031 17.6709 2.82031 16.4509C2.82031 16.0409 3.15031 15.7109 3.56031 15.7109C3.97031 15.7109 4.30031 16.0409 4.30031 16.4509C4.30031 17.0809 4.67031 17.6509 5.25031 17.9109L11.9903 20.9109C12.3103 21.0509 12.6803 21.0509 13.0003 20.9109L19.7403 17.9109C20.3103 17.6609 20.6903 17.0809 20.6903 16.4509C20.6903 16.0409 21.0203 15.7109 21.4303 15.7109C21.8403 15.7109 22.1703 16.0409 22.1703 16.4509C22.1703 17.6709 21.4503 18.7709 20.3403 19.2709L13.6003 22.2709C13.2603 22.4209 12.8803 22.5009 12.5003 22.5009Z"/>
</svg>
