<svg width="24" height="25" viewBox="0 0 24 25" fill="none" xmlns="http://www.w3.org/2000/svg">
<path d="M17.0996 2.5H12.8996C9.81646 2.5 8.37052 3.59409 8.06929 6.23901C8.00627 6.79235 8.46454 7.25 9.02145 7.25H11.0996C15.2996 7.25 17.2496 9.2 17.2496 13.4V15.4781C17.2496 16.035 17.7072 16.4933 18.2606 16.4303C20.9055 16.129 21.9996 14.6831 21.9996 11.6V7.4C21.9996 3.9 20.5996 2.5 17.0996 2.5Z" />
<path d="M11.1 8.5H6.9C3.4 8.5 2 9.9 2 13.4V17.6C2 21.1 3.4 22.5 6.9 22.5H11.1C14.6 22.5 16 21.1 16 17.6V13.4C16 9.9 14.6 8.5 11.1 8.5ZM12.29 14.15L8.58 17.86C8.44 18 8.26 18.07 8.07 18.07C7.88 18.07 7.7 18 7.56 17.86L5.7 16C5.42 15.72 5.42 15.27 5.7 14.99C5.98 14.71 6.43 14.71 6.71 14.99L8.06 16.34L11.27 13.13C11.55 12.85 12 12.85 12.28 13.13C12.56 13.41 12.57 13.87 12.29 14.15Z" />
</svg>
