<svg width="24" height="25" viewBox="0 0 24 25" fill="none" xmlns="http://www.w3.org/2000/svg">
<path d="M17 5.46V12.58C17 14.57 15.59 15.34 13.86 14.3L12.54 13.5C12.24 13.32 11.76 13.32 11.46 13.5L10.14 14.3C8.41 15.34 7 14.57 7 12.58V5.49C7.01 3.5 8.01 2.5 10 2.5H14C15.98 2.5 16.98 3.49 17 5.46Z" />
<path d="M22 12.4008V15.4308C22 20.4808 20 22.5008 15 22.5008H9C4 22.5008 2 20.4808 2 15.4308V12.4008C2 9.71083 2.57 7.88083 3.85 6.76083C4.5 6.21083 5.5 6.69083 5.5 7.54083V12.5808C5.5 14.0708 6.11 15.2708 7.17 15.8708C8.24 16.4808 9.6 16.3708 10.92 15.5808L12 14.9308L13.09 15.5808C13.83 16.0308 14.6 16.2608 15.32 16.2608C15.86 16.2608 16.37 16.1308 16.83 15.8708C17.89 15.2708 18.5 14.0708 18.5 12.5808V7.53083C18.5 6.68083 19.51 6.20083 20.15 6.76083C21.43 7.88083 22 9.71083 22 12.4008Z" />
</svg>
