<svg width="24" height="25" viewBox="0 0 24 25" fill="none" xmlns="http://www.w3.org/2000/svg">
<path d="M18.0204 12.83L16.8004 11.61C16.5104 11.36 16.3404 10.99 16.3304 10.58C16.3104 10.13 16.4904 9.68 16.8204 9.35L18.0204 8.15C19.0604 7.11 19.4504 6.11 19.1204 5.32C18.8004 4.54 17.8104 4.11 16.3504 4.11H5.90039V3.25C5.90039 2.84 5.56039 2.5 5.15039 2.5C4.74039 2.5 4.40039 2.84 4.40039 3.25V21.75C4.40039 22.16 4.74039 22.5 5.15039 22.5C5.56039 22.5 5.90039 22.16 5.90039 21.75V16.87H16.3504C17.7904 16.87 18.7604 16.43 19.0904 15.64C19.4204 14.85 19.0404 13.86 18.0204 12.83Z" />
</svg>
