<svg width="24" height="25" viewBox="0 0 24 25" fill="none" xmlns="http://www.w3.org/2000/svg">
<path d="M20.0199 11.2004L17.8999 12.5404C17.4999 12.7904 16.9899 12.7304 16.6599 12.4004L12.1299 7.87041C11.7999 7.54041 11.7399 7.03041 11.9899 6.63041L13.3299 4.51041C14.1499 3.22041 15.7899 3.16041 16.9999 4.36041L20.1799 7.54041C21.2999 8.67041 21.2299 10.4304 20.0199 11.2004Z" />
<path d="M14.7111 20.4498L5.99112 21.4698C5.91344 21.4801 5.83677 21.4874 5.76117 21.4919C5.07604 21.5323 4.90617 20.7247 5.39147 20.2394L7.98112 17.6498C8.30112 17.3398 8.30112 16.8498 7.98112 16.5398C7.68112 16.2298 7.19112 16.2298 6.87112 16.5398L4.28147 19.1294C3.79617 19.6147 2.99604 19.4441 3.03245 18.7588C3.03627 18.6868 3.04247 18.6138 3.05112 18.5398L4.08112 9.81975C4.34112 7.63975 5.14112 6.91975 7.44112 7.05975L8.94112 7.14975C9.43112 7.17975 9.89112 7.38975 10.2411 7.73975L16.7911 14.2898C17.1411 14.6398 17.3511 15.0998 17.3711 15.5898L17.4611 17.0898C17.6911 19.3998 16.9011 20.1998 14.7111 20.4498Z" />
</svg>
