<svg width="24" height="25" viewBox="0 0 24 25" fill="none" xmlns="http://www.w3.org/2000/svg">
<path d="M5.23852 15.3117C5.63734 16.8002 6.51616 18.1154 7.73867 19.0535C8.96118 19.9915 10.4591 20.5 12 20.5C13.5409 20.5 15.0388 19.9915 16.2613 19.0535C17.4838 18.1154 18.3627 16.8002 18.7615 15.3117" stroke-width="2"/>
<path d="M12 4.5L11.3753 3.71913L12 3.21937L12.6247 3.71913L12 4.5ZM13 13.5C13 14.0523 12.5523 14.5 12 14.5C11.4477 14.5 11 14.0523 11 13.5L13 13.5ZM6.37531 7.71913L11.3753 3.71913L12.6247 5.28087L7.6247 9.28087L6.37531 7.71913ZM12.6247 3.71913L17.6247 7.71913L16.3753 9.28087L11.3753 5.28087L12.6247 3.71913ZM13 4.5L13 13.5L11 13.5L11 4.5L13 4.5Z"/>
</svg>
