<svg width="18" height="19" viewBox="0 0 18 19" fill="none" xmlns="http://www.w3.org/2000/svg">
<g clip-path="url(#clip0_1271_11029)">
<path d="M8.16601 2.83301H2.33268C1.89065 2.83301 1.46673 3.0086 1.15417 3.32116C0.84161 3.63372 0.666016 4.05765 0.666016 4.49967V16.1663C0.666016 16.6084 0.84161 17.0323 1.15417 17.3449C1.46673 17.6574 1.89065 17.833 2.33268 17.833H13.9993C14.4414 17.833 14.8653 17.6574 15.1779 17.3449C15.4904 17.0323 15.666 16.6084 15.666 16.1663V10.333" stroke-linecap="round" stroke-linejoin="round"/>
<path d="M14.416 1.5832C14.7475 1.25168 15.1972 1.06543 15.666 1.06543C16.1349 1.06543 16.5845 1.25168 16.916 1.5832C17.2475 1.91472 17.4338 2.36436 17.4338 2.8332C17.4338 3.30204 17.2475 3.75168 16.916 4.0832L8.99935 11.9999L5.66602 12.8332L6.49935 9.49986L14.416 1.5832Z" stroke-linecap="round" stroke-linejoin="round"/>
</g>
<defs>
<clipPath id="clip0_1271_11029">
<rect width="18" height="18" fill="white" transform="translate(0 0.5)"/>
</clipPath>
</defs>
</svg>
