<svg width="14" height="15" viewBox="0 0 14 15" fill="none" xmlns="http://www.w3.org/2000/svg">
<g clip-path="url(#clip0_1307_5773)">
<path d="M7 1.76055C8.87031 1.76055 9.0918 1.76875 9.82734 1.80156C10.5109 1.83164 10.8801 1.94648 11.1262 2.04219C11.4516 2.16797 11.6867 2.32109 11.9301 2.56445C12.1762 2.81055 12.3266 3.04297 12.4523 3.36836C12.548 3.61445 12.6629 3.98633 12.693 4.66719C12.7258 5.40547 12.734 5.62695 12.734 7.49453C12.734 9.36484 12.7258 9.58633 12.693 10.3219C12.6629 11.0055 12.548 11.3746 12.4523 11.6207C12.3266 11.9461 12.1734 12.1813 11.9301 12.4246C11.684 12.6707 11.4516 12.8211 11.1262 12.9469C10.8801 13.0426 10.5082 13.1574 9.82734 13.1875C9.08906 13.2203 8.86758 13.2285 7 13.2285C5.12969 13.2285 4.9082 13.2203 4.17266 13.1875C3.48906 13.1574 3.11992 13.0426 2.87383 12.9469C2.54844 12.8211 2.31328 12.668 2.06992 12.4246C1.82383 12.1785 1.67344 11.9461 1.54766 11.6207C1.45195 11.3746 1.33711 11.0027 1.30703 10.3219C1.27422 9.5836 1.26602 9.36211 1.26602 7.49453C1.26602 5.62422 1.27422 5.40273 1.30703 4.66719C1.33711 3.98359 1.45195 3.61445 1.54766 3.36836C1.67344 3.04297 1.82656 2.80781 2.06992 2.56445C2.31602 2.31836 2.54844 2.16797 2.87383 2.04219C3.11992 1.94648 3.4918 1.83164 4.17266 1.80156C4.9082 1.76875 5.12969 1.76055 7 1.76055ZM7 0.5C5.09961 0.5 4.86172 0.508203 4.11523 0.541016C3.37148 0.573828 2.86016 0.694141 2.41719 0.866406C1.95508 1.04688 1.56406 1.28477 1.17578 1.67578C0.784766 2.06406 0.546875 2.45508 0.366406 2.91445C0.194141 3.36016 0.0738281 3.86875 0.0410156 4.6125C0.00820313 5.36172 0 5.59961 0 7.5C0 9.40039 0.00820313 9.63828 0.0410156 10.3848C0.0738281 11.1285 0.194141 11.6398 0.366406 12.0828C0.546875 12.5449 0.784766 12.9359 1.17578 13.3242C1.56406 13.7125 1.95508 13.9531 2.41445 14.1309C2.86016 14.3031 3.36875 14.4234 4.1125 14.4563C4.85898 14.4891 5.09688 14.4973 6.99727 14.4973C8.89766 14.4973 9.13555 14.4891 9.88203 14.4563C10.6258 14.4234 11.1371 14.3031 11.5801 14.1309C12.0395 13.9531 12.4305 13.7125 12.8188 13.3242C13.207 12.9359 13.4477 12.5449 13.6254 12.0855C13.7977 11.6398 13.918 11.1313 13.9508 10.3875C13.9836 9.64102 13.9918 9.40313 13.9918 7.50274C13.9918 5.60234 13.9836 5.36445 13.9508 4.61797C13.918 3.87422 13.7977 3.36289 13.6254 2.91992C13.4531 2.45508 13.2152 2.06406 12.8242 1.67578C12.4359 1.2875 12.0449 1.04688 11.5855 0.869141C11.1398 0.696875 10.6313 0.576563 9.8875 0.54375C9.13828 0.508203 8.90039 0.5 7 0.5Z"/>
<path d="M7 3.9043C5.01484 3.9043 3.4043 5.51484 3.4043 7.5C3.4043 9.48516 5.01484 11.0957 7 11.0957C8.98516 11.0957 10.5957 9.48516 10.5957 7.5C10.5957 5.51484 8.98516 3.9043 7 3.9043ZM7 9.83242C5.71211 9.83242 4.66758 8.78789 4.66758 7.5C4.66758 6.21211 5.71211 5.16758 7 5.16758C8.28789 5.16758 9.33242 6.21211 9.33242 7.5C9.33242 8.78789 8.28789 9.83242 7 9.83242Z"/>
<path d="M11.5773 3.76206C11.5773 4.22691 11.2 4.60152 10.7379 4.60152C10.273 4.60152 9.89844 4.22417 9.89844 3.76206C9.89844 3.29722 10.2758 2.92261 10.7379 2.92261C11.2 2.92261 11.5773 3.29995 11.5773 3.76206Z"/>
</g>
<defs>
<clipPath id="clip0_1307_5773">
<rect width="14" height="14" transform="translate(0 0.5)"/>
</clipPath>
</defs>
</svg>
