<svg width="44" height="37" viewBox="0 0 44 37" fill="none" xmlns="http://www.w3.org/2000/svg">
<path d="M23.2548 26.3394C22.8625 26.5443 22.4307 26.6508 21.993 26.6508C21.5553 26.6508 21.1236 26.5443 20.7313 26.3394L10.5425 20.9682V29.8594C10.543 30.0826 10.6023 30.3013 10.7138 30.491C10.8254 30.6808 10.9848 30.834 11.1742 30.9337L21.4887 36.3729C21.6468 36.4564 21.8213 36.4999 21.9981 36.4999C22.175 36.4999 22.3494 36.4564 22.5076 36.3729L32.822 30.9337C33.0115 30.834 33.1709 30.6808 33.2825 30.491C33.394 30.3013 33.4533 30.0826 33.4537 29.8594V20.9646L23.2548 26.3394Z"/>
<path d="M22.8517 5.63521L20.5966 4.47144L18.6132 5.51346L20.8615 6.68082C21.646 6.2726 22.04 6.06133 22.8517 5.63521Z"/>
<path d="M28.7849 11.4899L30.0245 12.1416L30.7887 11.7406L29.5491 11.0889L28.7849 11.4899Z"/>
<path d="M21.2841 16.3776L20.5132 15.9551L19.7966 16.3346L20.5675 16.7536L21.2841 16.3776Z"/>
<path d="M15.7118 17.004C18.1368 18.311 19.3458 18.9591 21.9304 20.3199L27.918 17.158C25.3606 15.7829 24.1617 15.1312 21.7402 13.8135C19.3458 15.0739 18.1639 15.7006 15.7118 17.004ZM18.602 16.1804L19.176 15.8868L19.6956 15.6111L20.2526 15.3067C20.2854 15.2875 20.321 15.2742 20.3579 15.2673C20.3917 15.274 20.424 15.2873 20.453 15.3067L21.1323 15.6934L21.7911 16.0515L22.4976 16.4096C22.5485 16.4382 22.5757 16.4597 22.5723 16.4705C22.5689 16.4812 22.5451 16.4991 22.501 16.5242L21.91 16.8106L21.3904 17.0828L20.8504 17.3943C20.8191 17.4135 20.7844 17.4257 20.7485 17.4301C20.7111 17.4229 20.6754 17.4083 20.6432 17.3872L19.9639 17.004L19.3051 16.6459L18.5952 16.2878C18.5443 16.2592 18.5239 16.2413 18.5273 16.227C18.5307 16.2126 18.5579 16.2055 18.602 16.1804V16.1804ZM17.1349 17.0112C17.0706 17.0013 17.0071 16.9869 16.9447 16.9682C16.8869 16.936 16.8903 16.8894 16.9447 16.8285C17.0805 16.6996 17.2639 16.5457 17.4949 16.3666C17.6817 16.4669 17.9737 16.5994 18.3643 16.7605C19.2507 17.1186 20.0896 17.4266 20.8741 17.6593C20.7171 17.7111 20.5629 17.772 20.4123 17.8419C20.3058 17.8996 20.1911 17.9384 20.0726 17.9565C19.9571 17.9393 19.8434 17.9105 19.733 17.8706C18.9756 17.6342 18.293 17.4051 17.6783 17.1795C17.5006 17.1117 17.3191 17.0555 17.1349 17.0112V17.0112ZM24.0055 16.073L24.1617 15.987C24.3967 15.8594 24.6236 15.7159 24.841 15.5574C25.0982 15.7014 25.3477 15.8604 25.5882 16.0336C25.7104 16.1231 25.7512 16.1876 25.6832 16.2198C25.6219 16.2508 25.5568 16.2725 25.4897 16.2843C25.301 16.3406 25.1187 16.4186 24.9463 16.517L24.8851 16.5528L25.6968 16.9897C25.7729 16.8096 25.8189 16.617 25.8327 16.4203C25.8329 16.4014 25.8403 16.3834 25.8531 16.3702C25.9003 16.3619 25.9485 16.3619 25.9957 16.3702L26.5629 16.4812C26.6003 16.487 26.6368 16.4978 26.6716 16.5134C26.6987 16.5134 26.7089 16.5564 26.7089 16.603C26.713 16.7767 26.6889 16.9499 26.6376 17.115C26.6348 17.1284 26.6294 17.141 26.6218 17.1521C26.6143 17.1631 26.6046 17.1725 26.5935 17.1795C26.5364 17.1924 26.4773 17.1924 26.4202 17.1795L25.8802 17.0864L26.3557 17.3299L26.5119 17.4086C26.5697 17.4373 26.6002 17.4624 26.6002 17.4731C26.5776 17.4985 26.5497 17.5181 26.5187 17.5304L25.9855 17.8133C25.9512 17.8368 25.911 17.8493 25.87 17.8491C25.8319 17.8391 25.7953 17.8234 25.7614 17.8025L24.481 17.0864L24.1991 16.936C23.6981 17.2352 23.2149 17.5665 22.7523 17.9279C22.9934 17.8921 23.2515 17.8419 23.5232 17.7846C23.852 17.7137 24.1764 17.6216 24.4946 17.5089C24.667 17.6823 24.8281 17.8677 24.9768 18.0639C25.0176 18.1356 25.0108 18.1857 24.9565 18.2143C24.8752 18.2243 24.7932 18.2243 24.7119 18.2143C24.464 18.2321 24.2177 18.2692 23.9749 18.3253C23.3469 18.449 22.7132 18.5386 22.0764 18.5939C21.8285 18.9233 21.7674 19.1203 21.8896 19.1847C22.0119 19.2492 22.433 19.1847 23.0545 18.9412C23.0603 19.0853 23.0902 19.2271 23.1428 19.3602C23.1904 19.4676 23.1904 19.5392 23.1428 19.5643C23.0546 19.6025 22.9638 19.6337 22.8711 19.6574C22.2917 19.8743 21.6567 19.8577 21.0881 19.6109C20.9958 19.58 20.9121 19.5258 20.8443 19.4531C20.7764 19.3803 20.7264 19.2912 20.6986 19.1934C20.6708 19.0957 20.6661 18.9922 20.6848 18.8921C20.7036 18.792 20.7453 18.6982 20.8062 18.619C20.1996 18.6054 19.5941 18.5564 18.9926 18.4722C18.8833 18.4613 18.7759 18.4348 18.6734 18.3934C18.6292 18.3719 18.6156 18.3039 18.6292 18.1928C18.642 18.0456 18.634 17.8972 18.6054 17.7524C19.4737 17.9415 20.3578 18.0375 21.2443 18.0389C21.8744 17.4162 22.5788 16.8829 23.3398 16.4526L21.8115 15.6182L20.5413 14.9414C20.487 14.9128 20.4598 14.8913 20.4632 14.8806C20.4666 14.8698 20.487 14.8519 20.5311 14.8269L21.0643 14.5476C21.0997 14.5253 21.139 14.5106 21.1798 14.5046C21.2169 14.5126 21.2525 14.5271 21.2851 14.5476L22.5247 15.2422L24.0055 16.073Z"/>
<path d="M32.3571 10.9205L31.1141 10.2688L30.3669 10.6591L31.6066 11.3144L32.3571 10.9205Z"/>
<path d="M24.218 8.44253L26.215 7.39334L23.9157 6.19019L21.9255 7.23937L24.218 8.44253Z"/>
<path d="M43.5607 11.7798L22.3273 0.586079C22.2221 0.529494 22.1057 0.5 21.9877 0.5C21.8696 0.5 21.7532 0.529494 21.648 0.586079L0.414573 11.7798C0.290058 11.8451 0.185292 11.9457 0.112051 12.0703C0.0388112 12.1949 0 12.3386 0 12.4852C0 12.6318 0.0388112 12.7755 0.112051 12.9001C0.185292 13.0248 0.290058 13.1254 0.414573 13.1906L21.648 24.3843C21.7532 24.4409 21.8696 24.4704 21.9877 24.4704C22.1057 24.4704 22.2221 24.4409 22.3273 24.3843L43.5607 13.1906C43.6852 13.1254 43.79 13.0248 43.8632 12.9001C43.9365 12.7755 43.9753 12.6318 43.9753 12.4852C43.9753 12.3386 43.9365 12.1949 43.8632 12.0703C43.79 11.9457 43.6852 11.8451 43.5607 11.7798V11.7798ZM16.1698 5.62791L18.0106 4.68614L18.9955 4.1705L20.354 3.45433C20.3904 3.43139 20.4309 3.41675 20.4729 3.41137C20.5117 3.42111 20.5493 3.43552 20.585 3.45433L21.9741 4.19199L23.8148 5.14449L24.4941 4.78641C24.9182 4.57608 25.3289 4.33685 25.7235 4.07024C26.1617 4.30658 26.5047 4.51426 26.7594 4.68614C26.8579 4.7506 26.8715 4.80431 26.8002 4.84012C26.7204 4.87963 26.6358 4.90735 26.5488 4.92248C26.2346 5.016 25.9315 5.14695 25.6454 5.31279L24.8949 5.70669L26.8036 6.70216L28.1417 7.3861C28.196 7.41475 28.2198 7.43623 28.2164 7.44697C28.213 7.45771 28.1892 7.47562 28.1383 7.50069L26.9054 8.13091L25.7915 8.71459L23.9439 9.67784C23.9123 9.69706 23.8779 9.71039 23.842 9.71722C23.8048 9.71172 23.7689 9.69833 23.7367 9.67784L22.9148 9.24456C22.8639 9.21591 22.8435 9.19442 22.8435 9.18368C22.8617 9.16107 22.8851 9.14381 22.9114 9.13355L23.3054 8.92586L21.0163 7.71912L19.8752 8.31712L18.2076 9.2159C18.1761 9.23737 18.1398 9.24972 18.1023 9.25172C18.0678 9.24407 18.0345 9.23078 18.0038 9.21233L17.1242 8.74324C17.0699 8.7146 17.0461 8.69311 17.0495 8.68236C17.0529 8.67162 17.0733 8.65729 17.114 8.63223L18.8121 7.76925L19.9669 7.16409L17.7219 5.98958L17.2974 6.21159C17.2616 6.23517 17.2207 6.24872 17.1785 6.25097C17.1399 6.24455 17.103 6.22993 17.0699 6.208L16.1868 5.74965C16.1325 5.72101 16.1087 5.69953 16.1121 5.6852C16.1155 5.67088 16.1223 5.65297 16.1698 5.62791V5.62791ZM10.5932 8.29921L11.2487 7.94113C11.2768 7.92143 11.31 7.91142 11.3437 7.91248C11.3845 7.92087 11.4236 7.93662 11.4592 7.95904L12.8008 8.69669L14.8827 9.82107L15.0287 9.74587C15.2951 9.61327 15.5488 9.45377 15.7861 9.26961C16.1257 9.44866 16.4653 9.64561 16.8049 9.85688C16.9 9.91775 16.9204 9.96431 16.8593 9.99654C16.8256 10.0117 16.7902 10.0226 16.754 10.0288L16.6351 10.0538C16.442 10.1146 16.2554 10.1962 16.0781 10.2973L15.9253 10.3797L18.0955 11.5578L19.3657 12.231C19.4337 12.2704 19.4371 12.3026 19.3657 12.3348L18.6865 12.6929C18.6516 12.7128 18.6137 12.7262 18.5744 12.7323C18.5395 12.7259 18.5061 12.7125 18.4759 12.6929L17.2431 11.9982C15.2053 10.8774 14.1593 10.3116 11.9755 9.13355L10.6 8.41738C10.5422 8.38516 10.5117 8.36367 10.5117 8.34935C10.5117 8.33502 10.5524 8.32428 10.5932 8.29921V8.29921ZM12.4577 15.0025C12.1965 15.1514 11.902 15.2231 11.6053 15.2102C11.093 15.1254 10.6008 14.9382 10.1551 14.6588C9.99883 14.5764 9.92412 14.5155 9.92751 14.4869C9.93091 14.4583 9.99204 14.401 10.1075 14.3114C10.2475 14.2089 10.3636 14.0742 10.4471 13.9175C10.7053 14.0858 10.9498 14.2327 11.1841 14.358C11.2645 14.4038 11.3543 14.4277 11.4456 14.4277C11.537 14.4277 11.6268 14.4038 11.7072 14.358L12.9128 13.717L11.286 12.8254L9.62524 13.717C9.12939 13.9892 8.87806 14.1252 8.37202 14.4081C8.33684 14.4309 8.29748 14.4455 8.25655 14.4511C8.21985 14.4416 8.18447 14.4271 8.15126 14.4081L7.31918 13.9677C7.26484 13.939 7.24107 13.9176 7.24447 13.8996C7.24786 13.8817 7.26824 13.871 7.31578 13.8459L8.61316 13.1692L10.2807 12.2775L8.85429 11.4683L7.43126 12.2274L6.64672 12.6714C6.61521 12.6929 6.5789 12.7052 6.54144 12.7072C6.5027 12.7037 6.46538 12.6901 6.43275 12.6678L5.58029 12.2131C5.52595 12.1844 5.50218 12.1665 5.50218 12.1522C5.50218 12.1379 5.53275 12.1236 5.5769 12.0985L6.46672 11.6401L7.76409 10.9455L8.5792 10.4943C8.61421 10.4685 8.6554 10.4536 8.69807 10.4513C8.73668 10.4577 8.77365 10.4723 8.80674 10.4943L10.1822 11.2641L11.1637 11.7977L12.1011 11.3C11.0483 10.7234 10.5117 10.4334 9.41467 9.83898L8.29051 10.437C8.2588 10.4575 8.22243 10.4686 8.18523 10.4692C8.14649 10.4633 8.10941 10.4486 8.07654 10.4262L7.26144 9.98578C7.2071 9.95714 7.17654 9.93565 7.17994 9.92133C7.18333 9.90701 7.2037 9.89269 7.24786 9.86762L8.26673 9.34839L8.5792 9.18368L9.10222 8.88647C9.13445 8.86665 9.17037 8.85444 9.20751 8.85066C9.24564 8.86067 9.28223 8.87634 9.31618 8.89722L10.6441 9.63487L11.5951 10.1505C11.7389 9.95597 11.8609 9.74447 11.9585 9.52028C11.9689 9.49869 11.9855 9.48114 12.006 9.47015C12.0714 9.45626 12.1393 9.46504 12.1996 9.49521L13.0317 9.77094C13.0705 9.78049 13.1082 9.79492 13.1438 9.81391C13.1524 9.81796 13.16 9.82394 13.1662 9.83145C13.1724 9.83896 13.177 9.8478 13.1795 9.85736C13.1821 9.86692 13.1827 9.87695 13.1812 9.88677C13.1797 9.89658 13.1762 9.90594 13.1709 9.91417C13.0213 10.2008 12.8461 10.4717 12.6479 10.7234L14.3053 11.6294C14.6211 11.5793 14.954 11.5112 15.2868 11.4396C15.4763 11.4037 15.6619 11.3473 15.8404 11.2713C16.1022 11.4706 16.3529 11.6859 16.591 11.9159C16.6385 11.9732 16.6385 12.0125 16.591 12.0376C16.5167 12.0641 16.4383 12.0751 16.36 12.0698C16.2408 12.066 16.1215 12.0732 16.0034 12.0913L15.3242 12.1987L16.2548 12.7072L17.5114 13.3804C17.5691 13.4091 17.5963 13.4341 17.5963 13.4449C17.5963 13.4556 17.5725 13.4735 17.5284 13.495L17.0291 13.7385L16.6521 13.939L15.6706 14.4797C15.6357 14.4997 15.5978 14.513 15.5585 14.5191C15.5188 14.5108 15.4809 14.495 15.4464 14.4726L14.7094 14.0679C14.6585 14.0429 14.6347 14.0214 14.6381 14.0107C14.6415 13.9999 14.6653 13.982 14.7162 13.9534L15.837 13.3589L13.086 11.8514L12.1487 12.3491C12.6275 12.607 12.8619 12.7394 13.334 12.9973L14.6755 13.7134C14.723 13.7385 14.7468 13.76 14.7434 13.7707C14.74 13.7815 14.7129 13.803 14.6619 13.828L13.7313 14.3043L13.103 14.6373L12.4577 15.0025ZM29.7108 17.3158L27.4522 18.4867L25.3092 19.6218L21.8144 21.4946C21.7815 21.5149 21.7438 21.5248 21.7058 21.5232C21.6652 21.516 21.6262 21.5015 21.5903 21.4803L20.7684 21.0542C20.714 21.0255 20.6869 21.004 20.6869 20.9933C20.6869 20.9825 20.7107 20.9682 20.7548 20.9432L21.1182 20.7534C18.5201 19.3962 17.3076 18.7517 14.8691 17.4554L14.4785 17.6595C14.4456 17.6819 14.4086 17.6966 14.3698 17.7025C14.333 17.6936 14.2975 17.6791 14.2645 17.6595L13.4902 17.2513C13.4426 17.2262 13.4223 17.2083 13.4223 17.194C13.4223 17.1797 13.4494 17.1654 13.497 17.1403L17.165 15.2067L18.9955 14.2398L21.5054 12.8934C21.5402 12.8706 21.5799 12.857 21.6208 12.854C21.6581 12.8595 21.6939 12.8729 21.7261 12.8934L22.9556 13.5809C25.0782 14.734 26.1379 15.3069 28.3624 16.4993L29.7006 17.194C29.7583 17.2262 29.7889 17.2477 29.7855 17.2621C29.7821 17.2764 29.7583 17.2907 29.7108 17.3158V17.3158ZM37.3422 12.8147L36.7444 13.1298C36.7091 13.1506 36.6694 13.1616 36.6289 13.162C36.5881 13.1559 36.5489 13.1413 36.5135 13.119L36.3946 13.051C36.1535 12.9149 35.8886 12.7753 35.6067 12.6249L34.8595 13.0188L35.2908 13.2443L36.5712 13.8925C36.6391 13.9283 36.6391 13.9605 36.5712 13.9999L35.9293 14.3365C35.896 14.3572 35.859 14.3706 35.8206 14.3759C35.7834 14.3753 35.7471 14.3642 35.7153 14.3437L34.4723 13.6741L34.041 13.4485L33.2734 13.8531L34.2923 14.3652C34.3433 14.3938 34.3704 14.4117 34.367 14.426C34.3636 14.4404 34.3433 14.4547 34.2991 14.4762L33.715 14.7841C33.6811 14.8037 33.6444 14.817 33.6063 14.8235C33.568 14.8177 33.5312 14.8043 33.4976 14.7841L32.1391 14.0679L30.2508 13.0474L29.6428 13.3661L32.0644 14.6445L33.3923 15.3248C33.4466 15.3535 33.4704 15.3714 33.4704 15.3857C33.4704 15.4 33.4432 15.4143 33.4025 15.4358L32.7436 15.7939C32.7114 15.8137 32.6755 15.8259 32.6383 15.8297C32.6002 15.8232 32.5635 15.8099 32.5297 15.7903L31.2391 15.0742L28.8243 13.7922L27.8054 14.3473C27.7721 14.3679 27.7351 14.3813 27.6968 14.3866C27.6601 14.3771 27.6247 14.3627 27.5915 14.3437L26.7968 13.9175C26.7356 13.8853 26.739 13.8495 26.7968 13.8137L27.853 13.2766L25.625 12.0877L24.3718 11.4396C24.3209 11.411 24.2937 11.3895 24.2971 11.3787C24.3005 11.368 24.3243 11.3501 24.365 11.3286L25.0137 10.9884C25.045 10.9693 25.0797 10.9571 25.1156 10.9526C25.1524 10.9598 25.188 10.9731 25.2209 10.992L26.4368 11.6616L28.6715 12.8469L29.276 12.5318L27.5066 11.5936L26.1752 10.924C26.1243 10.8953 26.0971 10.8738 26.1005 10.8631C26.1039 10.8524 26.1277 10.8344 26.1718 10.8094L26.7662 10.4979C26.7961 10.4815 26.8293 10.473 26.863 10.473C26.8967 10.473 26.9299 10.4815 26.9598 10.4979L27.8734 11.0028L28.6341 10.6017L28.2673 10.4083L27.0549 9.78884C27.0107 9.76736 26.9937 9.74587 26.9971 9.73513C27.0005 9.72439 27.0243 9.70649 27.0719 9.68142L27.707 9.34839C27.7377 9.33084 27.7722 9.32165 27.8071 9.32165C27.8421 9.32165 27.8766 9.33084 27.9073 9.34839L29.0824 9.98578L29.4526 10.1792L30.1998 9.78884L29.5613 9.46657L29.3677 9.36989C29.3168 9.34482 29.2862 9.31975 29.2896 9.30901C29.293 9.29827 29.3168 9.28037 29.3609 9.2553L29.9621 8.94018C29.9951 8.9194 30.0324 8.90713 30.0708 8.90437C30.1096 8.90969 30.1468 8.92439 30.1794 8.94734L31.4666 9.64203L35.9531 11.9982L37.332 12.7144C37.3897 12.743 37.4203 12.7681 37.4203 12.7788C37.4203 12.7896 37.3829 12.7932 37.3422 12.8147ZM39.5803 12.3491L38.9384 12.6822C38.9044 12.7041 38.866 12.7176 38.8263 12.7215C38.7883 12.7128 38.7517 12.6983 38.7176 12.6786L37.4576 12.0018L36.2622 11.3716L35.8614 11.6043C35.8285 11.6228 35.7917 11.6325 35.7544 11.6325C35.7171 11.6325 35.6804 11.6228 35.6474 11.6043L34.8765 11.1997C34.8199 11.171 34.7927 11.1496 34.795 11.1352C34.795 11.1352 34.8187 11.1066 34.8595 11.0851L35.0259 11.0063L35.3044 10.8738L33.484 9.91776L33.0697 10.1541C33.0353 10.1746 32.997 10.1868 32.9576 10.1899C32.922 10.1802 32.8878 10.1657 32.8557 10.1469L32.0983 9.74946C32.0236 9.71007 32.0236 9.67426 32.0983 9.63845L32.2715 9.5525L32.55 9.4236L31.4598 8.84708L30.2236 8.21686C30.176 8.19179 30.1489 8.17031 30.1523 8.15956C30.1557 8.14882 30.1794 8.12733 30.2236 8.10584L30.8791 7.74776C30.9179 7.7249 30.9606 7.7103 31.0047 7.70479C31.0398 7.71064 31.0733 7.72406 31.1032 7.74418L32.2987 8.3959L33.3889 8.96883C33.6488 8.83137 33.9016 8.67957 34.1463 8.51406C34.4548 8.6807 34.7552 8.86356 35.0463 9.06193C35.1278 9.11564 35.138 9.15862 35.0802 9.19085C35.0175 9.21851 34.951 9.23542 34.8833 9.24097C34.6896 9.28851 34.5033 9.36445 34.3297 9.46657L36.1433 10.4262C36.409 10.297 36.6635 10.1436 36.904 9.96788C37.1825 10.1219 37.4848 10.3081 37.8176 10.5229C37.9025 10.5838 37.9195 10.6268 37.8652 10.6554C37.799 10.6826 37.729 10.6983 37.658 10.702C37.4633 10.7512 37.2759 10.8283 37.101 10.9311L38.2931 11.5614L39.5871 12.2202C39.6448 12.2489 39.6686 12.2704 39.6652 12.2847C39.6431 12.314 39.6137 12.3363 39.5803 12.3491V12.3491Z"/>
<path d="M32.5792 11.8263L33.9072 12.5245L34.6578 12.1306L33.3264 11.4324L32.5792 11.8263Z"/>
<path d="M30.991 12.6535L32.319 13.3518L33.0865 12.9507L31.7586 12.2524L30.991 12.6535Z"/>
<rect x="24.249" y="10.5342" width="11.2077" height="5.37126"/>
<rect x="22.8895" y="7.66943" width="11.2077" height="5.37126"/>
<rect x="24.5889" y="8.3855" width="11.2077" height="5.37126"/>
<rect x="26.9681" y="9.45972" width="11.2077" height="5.37126"/>
<rect x="28.6675" y="10.5342" width="11.2077" height="3.58084"/>
<rect x="18.8171" y="15.189" width="11.2077" height="3.58084"/>
<rect x="16.4379" y="18.054" width="10.5284" height="3.58084"/>
<rect x="12.7023" y="15.189" width="11.2077" height="3.58084"/>
<rect x="15.7582" y="12.6826" width="11.2077" height="3.58084"/>
<rect x="6.93048" y="11.9663" width="11.2077" height="3.58084"/>
<rect x="3.87463" y="10.5342" width="11.2077" height="3.58084"/>
<rect x="6.58752" y="9.10181" width="11.2077" height="3.58084"/>
<rect x="8.62683" y="7.66919" width="11.2077" height="3.58084"/>
<rect x="12.0256" y="9.45972" width="11.2077" height="3.58084"/>
<rect x="15.7582" y="6.59497" width="11.2077" height="3.58084"/>
<rect x="18.8171" y="6.23682" width="11.2077" height="3.58084"/>
<rect x="16.7778" y="4.80469" width="11.2077" height="3.58084"/>
<rect x="16.0981" y="4.44653" width="11.2077" height="3.58084"/>
<rect x="17.4575" y="3.01416" width="6.79253" height="3.58084"/>
<rect x="20.5134" y="3.73047" width="6.79253" height="3.58084"/>
</svg>
