<svg width="14" height="15" viewBox="0 0 14 15" fill="none" xmlns="http://www.w3.org/2000/svg">
<g clip-path="url(#clip0_1307_5778)">
<path fill-rule="evenodd" clip-rule="evenodd" d="M14 7.5C14 11.366 10.866 14.5 7 14.5C3.13401 14.5 0 11.366 0 7.5C0 3.63401 3.13401 0.5 7 0.5C10.866 0.5 14 3.63401 14 7.5ZM7.25085 5.66771C6.56999 5.9509 5.20925 6.53703 3.1686 7.42611C2.83724 7.55788 2.66365 7.68679 2.64785 7.81284C2.62114 8.02587 2.88792 8.10976 3.25119 8.22399C3.30061 8.23953 3.35181 8.25563 3.4043 8.27269C3.7617 8.38887 4.24248 8.52479 4.49242 8.53019C4.71913 8.53508 4.97217 8.44162 5.25154 8.24978C7.15818 6.96275 8.14239 6.31222 8.20418 6.2982C8.24778 6.2883 8.30818 6.27586 8.34911 6.31224C8.39004 6.34862 8.38602 6.41752 8.38168 6.436C8.35526 6.54867 7.30807 7.52222 6.76615 8.02604C6.59721 8.1831 6.47738 8.29451 6.45288 8.31996C6.398 8.37695 6.34207 8.43087 6.28832 8.48269C5.95628 8.80278 5.70728 9.04281 6.30211 9.43479C6.58796 9.62316 6.81669 9.77893 7.04489 9.93433C7.2941 10.104 7.54267 10.2733 7.86427 10.4841C7.94621 10.5379 8.02447 10.5936 8.10069 10.648C8.39071 10.8547 8.65127 11.0405 8.97318 11.0109C9.16023 10.9937 9.35344 10.8178 9.45156 10.2932C9.68346 9.0535 10.1393 6.36743 10.2446 5.26057C10.2539 5.16359 10.2422 5.03948 10.2329 4.985C10.2236 4.93052 10.2041 4.8529 10.1333 4.79543C10.0494 4.72738 9.91995 4.71303 9.86205 4.71405C9.59876 4.71869 9.19482 4.85914 7.25085 5.66771Z"/>
</g>
<defs>
<clipPath id="clip0_1307_5778">
<rect width="14" height="14" transform="translate(0 0.5)"/>
</clipPath>
</defs>
</svg>
