<svg width="16" height="19" viewBox="0 0 16 19" fill="none" xmlns="http://www.w3.org/2000/svg">
<g clip-path="url(#clip0_1271_11034)">
<path d="M0.5 4.5H2.16667H15.5" stroke-linecap="round" stroke-linejoin="round"/>
<path d="M4.66602 4.50033V2.83366C4.66602 2.39163 4.84161 1.96771 5.15417 1.65515C5.46673 1.34259 5.89066 1.16699 6.33268 1.16699H9.66602C10.108 1.16699 10.532 1.34259 10.8445 1.65515C11.1571 1.96771 11.3327 2.39163 11.3327 2.83366V4.50033M13.8327 4.50033V16.167C13.8327 16.609 13.6571 17.0329 13.3445 17.3455C13.032 17.6581 12.608 17.8337 12.166 17.8337H3.83268C3.39065 17.8337 2.96673 17.6581 2.65417 17.3455C2.34161 17.0329 2.16602 16.609 2.16602 16.167V4.50033H13.8327Z" stroke-linecap="round" stroke-linejoin="round"/>
<path d="M6.33398 8.66699V13.667" stroke-linecap="round" stroke-linejoin="round"/>
<path d="M9.66602 8.66699V13.667" stroke-linecap="round" stroke-linejoin="round"/>
</g>
<defs>
<clipPath id="clip0_1271_11034">
<rect width="16" height="18" fill="white" transform="translate(0 0.5)"/>
</clipPath>
</defs>
</svg>
