<svg width="14" height="15" viewBox="0 0 14 15" fill="none" xmlns="http://www.w3.org/2000/svg">
<g clip-path="url(#clip0_1307_5782)">
<path fill-rule="evenodd" clip-rule="evenodd" d="M0.984121 1.48412C0 2.46824 0 4.05215 0 7.22V7.78C0 10.9478 0 12.5317 0.984121 13.5159C1.96824 14.5 3.55215 14.5 6.72 14.5H7.28C10.4478 14.5 12.0317 14.5 13.0159 13.5159C14 12.5317 14 10.9478 14 7.78V7.22C14 4.05215 14 2.46824 13.0159 1.48412C12.0317 0.5 10.4478 0.5 7.28 0.5H6.72C3.55215 0.5 1.96824 0.5 0.984121 1.48412ZM2.36253 4.75836C2.43837 8.39836 4.25836 10.5859 7.4492 10.5859H7.63006V8.50336C8.80256 8.62003 9.68917 9.47753 10.045 10.5859H11.7017C11.2467 8.9292 10.0508 8.01336 9.30414 7.66336C10.0508 7.2317 11.1008 6.1817 11.3516 4.75836H9.84661C9.51994 5.91336 8.55172 6.96336 7.63006 7.06253V4.75836H6.125V8.79503C5.19167 8.5617 4.01336 7.43003 3.96086 4.75836H2.36253Z"/>
</g>
<defs>
<clipPath id="clip0_1307_5782">
<rect width="14" height="14" transform="translate(0 0.5)"/>
</clipPath>
</defs>
</svg>
