<svg width="125" height="124" viewBox="0 0 125 124" fill="none" xmlns="http://www.w3.org/2000/svg">
<rect x="0.704712" y="0.5" width="123.591" height="114.298" rx="57.149" fill="#FA4242"/>
<path d="M49.7047 37.6445C49.7047 36.54 50.6001 35.6445 51.7047 35.6445H107.705C108.809 35.6445 109.705 36.54 109.705 37.6445V113.652C109.705 118.07 106.123 121.652 101.705 121.652H51.7047C50.6001 121.652 49.7047 120.757 49.7047 119.652V37.6445Z" fill="white"/>
<path d="M86.7047 108.852C86.7047 107.747 85.8093 106.852 84.7047 106.852H28.7047C27.6001 106.852 26.7047 107.747 26.7047 108.852V113.649C26.7047 118.067 30.2864 121.649 34.7047 121.649H84.7047C85.8093 121.649 86.7047 120.753 86.7047 119.649V108.852Z" fill="white"/>
<rect width="43.693" height="8.03173" transform="matrix(-0.716542 -0.697544 -0.751246 0.660023 60.6852 83.5117)" fill="white"/>
<g clip-path="url(#clip0_511_44266)">
<path d="M106.837 33.7932H52.0926C50.2647 33.7932 48.7772 35.1689 48.7772 36.8594V70.4749L31.4436 52.6282C30.9404 52.1101 30.2485 51.8042 29.4966 51.7672C28.7424 51.7296 28.0216 51.9657 27.4614 52.4311L23.5643 55.6684C22.4076 56.6293 22.3121 58.2814 23.3511 59.3512L47.8358 84.5594C48.103 84.8345 48.4234 85.0474 48.7772 85.1945V105.478H43.2542C42.469 105.478 41.8333 106.067 41.8333 106.792C41.8333 107.518 42.469 108.107 43.2542 108.107H82.4267C82.6879 108.107 82.9003 108.303 82.9003 108.545V111.246C82.9003 115.146 84.8807 118.626 87.9594 120.872H37.6127C31.8729 120.872 27.2031 116.554 27.2031 111.245V108.545C27.2031 108.303 27.4155 108.107 27.6768 108.107H37.0666C37.851 108.107 38.4875 107.518 38.4875 106.792C38.4875 106.067 37.851 105.478 37.0666 105.478H27.6768C25.8488 105.478 24.3613 106.854 24.3613 108.545V111.245C24.3613 118.002 30.3062 123.5 37.6127 123.5H96.9014C104.208 123.5 110.153 118.002 110.153 111.245V75.4862C110.153 74.7607 109.517 74.1721 108.732 74.1721C107.947 74.1721 107.311 74.7607 107.311 75.4862V111.245C107.311 116.554 102.641 120.872 96.9014 120.872H96.1503C90.4104 120.872 85.7414 116.554 85.7414 111.246V108.545C85.7414 106.854 84.2539 105.479 82.426 105.479H51.619V86.1452L55.673 88.0088C55.9949 88.1567 56.3398 88.2292 56.6817 88.2292C57.2264 88.2292 57.7629 88.0458 58.1892 87.6919C58.8826 87.1157 59.1217 86.2211 58.7983 85.4122L56.6195 79.9629C56.6321 79.8821 56.6417 79.8014 56.6462 79.7192C56.6869 79.0239 56.4316 78.3552 55.9283 77.8371L51.619 73.4008V36.8594C51.619 36.6178 51.8314 36.4214 52.0926 36.4214H106.837C107.099 36.4214 107.311 36.6178 107.311 36.8594V53.9957C107.311 54.7218 107.947 55.3097 108.732 55.3097C109.517 55.3097 110.153 54.7218 110.153 53.9957V36.8594C110.153 35.1689 108.665 33.7932 106.837 33.7932V33.7932ZM29.3441 54.3995L31.0314 56.1372L27.1676 59.3477L25.4795 57.61L29.3441 54.3995ZM29.0658 61.3031L29.9413 60.5756L50.8101 82.0613L49.9354 82.7888L29.0658 61.3031ZM52.9459 83.8202L54.5866 82.4569L55.6249 85.0515L52.9459 83.8202ZM52.9244 80.3051L32.0557 58.8194L32.9304 58.0925L53.7992 79.5783L52.9244 80.3051Z" fill="#353535"/>
<path d="M108.732 58.4045C107.948 58.4045 107.311 58.9925 107.311 59.7186V69.7637C107.311 70.4899 107.948 71.0778 108.732 71.0778C109.517 71.0778 110.153 70.4899 110.153 69.7637V59.7186C110.153 58.9925 109.517 58.4045 108.732 58.4045Z" fill="#353535"/>
<path d="M63.1113 60.1807C60.4308 60.1807 58.2499 62.1976 58.2499 64.6772C58.2499 67.1562 60.4308 69.1731 63.1113 69.1731C65.7925 69.1731 67.9735 67.1562 67.9735 64.6772C67.9735 62.1976 65.7925 60.1807 63.1113 60.1807ZM63.1113 66.545C61.9975 66.545 61.0917 65.7073 61.0917 64.6772C61.0917 63.6472 61.9975 62.8088 63.1113 62.8088C64.2251 62.8088 65.1316 63.6472 65.1316 64.6772C65.1316 65.7073 64.2251 66.545 63.1113 66.545Z" fill="#FA4242"/>
<path d="M72.2477 66.2734H79.2101C79.9946 66.2734 80.631 65.6848 80.631 64.9593C80.631 64.2339 79.9946 63.6453 79.2101 63.6453H72.2477C71.4632 63.6453 70.8268 64.2339 70.8268 64.9593C70.8268 65.6848 71.4632 66.2734 72.2477 66.2734Z" fill="#FA4242"/>
<path d="M96.5177 66.7949H72.2477C71.4632 66.7949 70.8268 67.3828 70.8268 68.109C70.8268 68.8345 71.4632 69.4231 72.2477 69.4231H96.5177C97.3022 69.4231 97.9387 68.8345 97.9387 68.109C97.9387 67.3828 97.3022 66.7949 96.5177 66.7949Z" fill="#FA4242"/>
<path d="M72.2555 62.5598H72.2651C73.0496 62.555 73.6816 61.963 73.6771 61.2375C73.672 60.5141 73.0362 59.9316 72.2562 59.9316C72.2533 59.9316 72.2503 59.9316 72.2466 59.9316H72.2325C71.4473 59.9357 70.8227 60.5278 70.8279 61.2539C70.8324 61.9767 71.4747 62.5598 72.2555 62.5598Z" fill="#FA4242"/>
<path d="M63.1113 74.0618C60.4308 74.0618 58.2499 76.0787 58.2499 78.5583C58.2499 81.0373 60.4308 83.0542 63.1113 83.0542C65.7925 83.0542 67.9735 81.0373 67.9735 78.5583C67.9735 76.0787 65.7925 74.0618 63.1113 74.0618ZM63.1113 80.4261C61.9975 80.4261 61.0917 79.5884 61.0917 78.5577C61.0917 77.5276 61.9975 76.6899 63.1113 76.6899C64.2251 76.6899 65.1316 77.5276 65.1316 78.5577C65.1316 79.5884 64.2251 80.4261 63.1113 80.4261Z" fill="#FA4242"/>
<path d="M72.2477 80.1545H79.2101C79.9946 80.1545 80.631 79.5659 80.631 78.8404C80.631 78.115 79.9946 77.5264 79.2101 77.5264H72.2477C71.4632 77.5264 70.8268 78.115 70.8268 78.8404C70.8268 79.5659 71.4632 80.1545 72.2477 80.1545Z" fill="#FA4242"/>
<path d="M96.5177 80.676H72.2477C71.4632 80.676 70.8268 81.2639 70.8268 81.9901C70.8268 82.7156 71.4632 83.3042 72.2477 83.3042H96.5177C97.3022 83.3042 97.9387 82.7156 97.9387 81.9901C97.9387 81.2639 97.3022 80.676 96.5177 80.676Z" fill="#FA4242"/>
<path d="M72.2555 76.4402H72.2651C73.0496 76.436 73.6816 75.844 73.6771 75.1179C73.672 74.3951 73.0362 73.812 72.2562 73.812C72.2533 73.812 72.2503 73.812 72.2466 73.812H72.2325C71.4473 73.8168 70.8227 74.4088 70.8279 75.1343C70.8324 75.8577 71.4747 76.4402 72.2555 76.4402Z" fill="#FA4242"/>
<path d="M63.1113 87.9431C60.4308 87.9431 58.2499 89.9601 58.2499 92.4397C58.2499 94.9186 60.4308 96.9356 63.1113 96.9356C65.7925 96.9356 67.9735 94.9186 67.9735 92.4397C67.9735 89.9601 65.7925 87.9431 63.1113 87.9431ZM63.1113 94.3075C61.9975 94.3075 61.0917 93.4697 61.0917 92.4397C61.0917 91.4097 61.9975 90.5713 63.1113 90.5713C64.2251 90.5713 65.1316 91.4097 65.1316 92.4397C65.1316 93.4697 64.2251 94.3075 63.1113 94.3075Z" fill="#353535"/>
<path d="M72.2477 94.0359H79.2101C79.9946 94.0359 80.631 93.4473 80.631 92.7218C80.631 91.9963 79.9946 91.4077 79.2101 91.4077H72.2477C71.4632 91.4077 70.8268 91.9963 70.8268 92.7218C70.8268 93.4473 71.4632 94.0359 72.2477 94.0359Z" fill="#353535"/>
<path d="M72.2477 97.1855H96.5177C97.3022 97.1855 97.9387 96.5969 97.9387 95.8714C97.9387 95.1453 97.3022 94.5574 96.5177 94.5574H72.2477C71.4632 94.5574 70.8268 95.1453 70.8268 95.8714C70.8268 96.5969 71.4632 97.1855 72.2477 97.1855Z" fill="#353535"/>
<path d="M72.2555 90.3222H72.2651C73.0496 90.3174 73.6816 89.7254 73.6771 88.9999C73.672 88.2765 73.0362 87.6941 72.2562 87.6941C72.2533 87.6941 72.2503 87.6941 72.2466 87.6941H72.2325C71.4473 87.6982 70.8227 88.2902 70.8279 89.0164C70.8324 89.7391 71.4747 90.3222 72.2555 90.3222Z" fill="#353535"/>
<path d="M100.066 51.0131V43.3922C100.066 42.666 99.4293 42.0781 98.6449 42.0781H60.2856C59.5005 42.0781 58.8647 42.666 58.8647 43.3922V51.0131C58.8647 51.7393 59.5005 52.3272 60.2856 52.3272H98.6449C99.4293 52.3272 100.066 51.7393 100.066 51.0131ZM97.224 49.699H61.7066V44.7063H97.224V49.699Z" fill="#353535"/>
</g>
<defs>
<clipPath id="clip0_511_44266">
<rect width="97" height="89.7068" fill="white" transform="translate(17.7047 33.7932)"/>
</clipPath>
</defs>
</svg>
