<svg width="18" height="18" viewBox="0 0 18 18" fill="none" xmlns="http://www.w3.org/2000/svg">
<g opacity="0.3" clip-path="url(#clip0_701_46451)">
<path d="M15.75 1.125C16.0484 1.125 16.3345 1.24353 16.5455 1.4545C16.7565 1.66548 16.875 1.95163 16.875 2.25V15.75C16.875 16.0484 16.7565 16.3345 16.5455 16.5455C16.3345 16.7565 16.0484 16.875 15.75 16.875H2.25C1.95163 16.875 1.66548 16.7565 1.4545 16.5455C1.24353 16.3345 1.125 16.0484 1.125 15.75V2.25C1.125 1.95163 1.24353 1.66548 1.4545 1.4545C1.66548 1.24353 1.95163 1.125 2.25 1.125H15.75ZM2.25 0C1.65326 0 1.08097 0.237053 0.65901 0.65901C0.237053 1.08097 0 1.65326 0 2.25L0 15.75C0 16.3467 0.237053 16.919 0.65901 17.341C1.08097 17.7629 1.65326 18 2.25 18H15.75C16.3467 18 16.919 17.7629 17.341 17.341C17.7629 16.919 18 16.3467 18 15.75V2.25C18 1.65326 17.7629 1.08097 17.341 0.65901C16.919 0.237053 16.3467 0 15.75 0L2.25 0Z" fill="#353535"/>
<path d="M6.33188 13.8257C6.23301 13.7812 6.14909 13.7091 6.09021 13.6181C6.03134 13.5271 6.00001 13.421 6 13.3127V4.31265C5.99997 4.20422 6.03128 4.0981 6.09016 4.00705C6.14904 3.916 6.23298 3.84391 6.33188 3.79945C6.43077 3.755 6.54041 3.74007 6.64759 3.75647C6.75477 3.77287 6.85492 3.8199 6.936 3.8919L11.9985 8.3919C12.058 8.44468 12.1056 8.50947 12.1382 8.58199C12.1708 8.65452 12.1877 8.73313 12.1877 8.81265C12.1877 8.89217 12.1708 8.97078 12.1382 9.04331C12.1056 9.11584 12.058 9.18062 11.9985 9.2334L6.936 13.7334C6.8549 13.8054 6.75474 13.8524 6.64756 13.8687C6.54038 13.8851 6.43075 13.8701 6.33188 13.8257Z" fill="#353535"/>
</g>
<defs>
<clipPath id="clip0_701_46451">
<rect width="18" height="18" fill="white"/>
</clipPath>
</defs>
</svg>
