<svg width="55" height="56" viewBox="0 0 55 56" fill="none" xmlns="http://www.w3.org/2000/svg">
<path d="M41.2493 50.9168H13.7493C11.218 50.9168 9.16602 48.8648 9.16602 46.3335V9.66683C9.16602 7.13552 11.218 5.0835 13.7493 5.0835H29.791C29.816 5.08458 29.8407 5.08921 29.8643 5.09725C29.8867 5.10416 29.9098 5.10877 29.9331 5.111C30.1352 5.12395 30.3347 5.16324 30.5266 5.22787L30.5908 5.2485C30.6427 5.2661 30.6933 5.28755 30.7421 5.31266C30.9917 5.42363 31.2192 5.57892 31.4135 5.771L45.1635 19.521C45.3556 19.7153 45.5109 19.9428 45.6218 20.1925C45.6448 20.2429 45.6608 20.2956 45.6791 20.3483L45.6998 20.4079C45.7637 20.599 45.8015 20.7979 45.8121 20.9991C45.8156 21.0202 45.821 21.0409 45.8281 21.061C45.8321 21.0821 45.8337 21.1037 45.833 21.1252V46.3335C45.833 48.8648 43.7807 50.9168 41.2493 50.9168ZM13.7493 9.66683V46.3335H41.2493V23.4168H29.791C28.5254 23.4168 27.4993 22.3908 27.4993 21.1252V9.66683H13.7493ZM32.0827 12.9072V18.8335H38.0089L32.0827 12.9072Z" fill="#353535" fill-opacity="0.6"/>
</svg>
