<svg width="40" height="30" viewBox="0 0 40 30" fill="none" xmlns="http://www.w3.org/2000/svg">
<path d="M10 18.75V6.71026C10 6.49329 10 6.38481 10.0674 6.3174C10.1348 6.25 10.2433 6.25 10.4603 6.25H28.6192C29.19 6.25 29.4755 6.25 29.5279 6.40736C29.5804 6.56472 29.352 6.73597 28.8954 7.07848L22.0594 12.2054C21.8794 12.3404 21.7894 12.4079 21.7894 12.5C21.7894 12.5921 21.8794 12.6596 22.0594 12.7946L28.8954 17.9215C29.352 18.264 29.5804 18.4353 29.5279 18.5926C29.4755 18.75 29.19 18.75 28.6192 18.75H10ZM10 18.75V23.75" stroke="white" stroke-width="1.84106" stroke-linecap="round"/>
</svg>
