<svg width="967" height="889" viewBox="0 0 967 889" fill="none" xmlns="http://www.w3.org/2000/svg">
<path d="M612.064 297.567L576.054 236.16L471.957 212.705L176.308 482.15C179.455 486.959 199.857 516.903 215.993 542.425C232.349 568.295 253.719 578.255 261.852 580.429C296.005 589.32 379.082 610.841 438.162 625.793C499.261 635.05 531.437 588.222 539.888 563.651C557.103 516.458 595.07 411.288 609.216 368.152C623.361 325.016 617.009 303.122 612.064 297.567Z" fill="url(#paint0_linear_736_46356)"/>
<rect width="366.024" height="365.176" rx="91.2131" transform="matrix(0.97468 0.22604 -0.369904 0.928506 258.551 140.008)" fill="url(#paint1_radial_736_46356)"/>
<rect width="366.024" height="365.176" rx="91.2131" transform="matrix(0.97468 0.22604 -0.369904 0.928506 258.551 140.008)" fill="url(#paint2_linear_736_46356)"/>
<path d="M362.617 234.952L356.756 251.697L473.472 292.267L479.333 275.523L362.617 234.952ZM383.818 257.665L366.597 255.382C356.005 347.725 369.052 425.535 425.668 478.81C429.67 475.704 437.262 470.672 442.434 468.766C387.025 419.614 373.247 343.137 383.818 257.665ZM475.316 274.127L473.995 277.9C423.803 372.085 352.391 411.807 279.8 412.499C282.342 417.35 284.201 425.668 284.759 430.888C362.852 427.348 435.929 387.41 491.1 282.788L481.317 275.155L478.151 275.112L475.316 274.127ZM299.721 210.973C313.075 223.551 328.168 241.759 334.647 253.534L348.968 242.905C342.016 230.966 326.274 213.854 312.992 201.831L299.721 210.973ZM265.372 271.25C278.336 283.428 293.83 301.246 300.474 312.55L314.405 301.521C307.206 290.289 291.464 273.177 278.572 261.554L265.372 271.25ZM229.794 394.852L239.607 411.489C261.223 394.402 287.844 370.589 309.117 349.943L301.029 334.434C278.152 356.639 248.826 381.363 229.794 394.852Z" fill="#FFC85B"/>
<path d="M378.069 491.054L411.881 427.411L520.637 391.088L853.543 610.025C850.549 615.052 831.045 646.465 815.752 673.072C800.25 700.042 778.291 712.43 769.818 715.595C734.222 728.658 647.628 760.331 586.02 782.518C521.864 799.516 484.382 758.912 473.661 736.485C452.024 693.542 404.228 597.79 386.137 558.328C368.047 518.865 373.221 497.036 378.069 491.054Z" fill="url(#paint3_linear_736_46356)"/>
<rect x="-0.0492806" y="0.120618" width="365.765" height="365.028" rx="91.1131" transform="matrix(-0.949041 0.31674 0.456235 0.889444 726.954 293.947)" fill="url(#paint4_radial_736_46356)"/>
<rect x="-0.0492806" y="0.120618" width="365.765" height="365.028" rx="91.1131" transform="matrix(-0.949041 0.31674 0.456235 0.889444 726.954 293.947)" fill="url(#paint5_linear_736_46356)"/>
<rect x="-0.0492806" y="0.120618" width="365.765" height="365.028" rx="91.1131" transform="matrix(-0.949041 0.31674 0.456235 0.889444 726.954 293.947)" stroke="#FFC85B" stroke-width="0.2"/>
<path d="M563.646 428.791L569.981 444.288L701.843 390.754L695.507 375.257L563.646 428.791ZM591.562 520.211L598.087 536.171L745.707 476.24L739.182 460.28L591.562 520.211ZM625.075 547.329L658.266 628.517L674.72 621.837L647.865 556.146L727.121 523.97L753.692 588.967L770.841 582.004L737.934 501.51L625.075 547.329ZM656.448 600.937L662.689 616.203L757.24 577.817L750.999 562.551L656.448 600.937ZM614.539 415.141C621.303 445.567 628.572 488.464 631.17 514.649L649.246 507.31C645.962 482.753 639.166 441.012 632.908 409.841L614.539 415.141ZM588.683 466.901L594.924 482.168L691.097 443.123L684.856 427.857L588.683 466.901ZM680.917 429.456L681.768 431.538C685.852 444.173 692.896 468.013 697.387 485.608L714.314 480.085C709.78 463.047 703.493 441.057 697.465 423.007L684.941 426.743L682.539 428.797L680.917 429.456ZM507.355 461.623C524.314 467.413 545.849 476.47 557.331 483.405L563.907 466.442C552.846 459.875 530.804 451.563 514.361 446.372L507.355 461.623ZM517.767 522.122L524.576 538.776L566.057 521.935L559.249 505.281L517.767 522.122ZM605.141 641.994C606.683 636.513 611.049 629.347 638.781 586.804C635.741 583.993 630.681 578.226 627.863 573.976L598.003 617.923L595.836 627.163L605.141 641.994ZM605.141 641.994C602.588 635.749 613.902 618.48 613.902 618.48L566.433 502.365L549.979 509.045L591.208 609.894C595.084 619.377 592.298 626.442 589.768 630.166C594.293 632.644 601.817 638.489 605.141 641.994Z" fill="#FFC85B"/>
<defs>
<linearGradient id="paint0_linear_736_46356" x1="575.109" y1="204.179" x2="180.788" y2="489.884" gradientUnits="userSpaceOnUse">
<stop offset="0.0370143" stop-color="#800000"/>
<stop offset="0.134219" stop-color="#AC0000"/>
<stop offset="0.451646" stop-color="#DA5050"/>
<stop offset="0.485154" stop-color="#AC2222"/>
<stop offset="0.526023" stop-color="#C81313"/>
<stop offset="0.581112" stop-color="#D32525"/>
<stop offset="0.581212" stop-color="#1F27E7"/>
<stop offset="0.581312" stop-color="#400B0B"/>
<stop offset="0.620773" stop-color="#B52424"/>
<stop offset="0.716746" stop-color="#8D0F0F"/>
<stop offset="0.90079" stop-color="#CD1E1E"/>
<stop offset="1" stop-color="#B72222"/>
</linearGradient>
<radialGradient id="paint1_radial_736_46356" cx="0" cy="0" r="1" gradientUnits="userSpaceOnUse" gradientTransform="translate(6.45851e-06 475.37) rotate(-76.0058) scale(338.49 576.754)">
<stop stop-color="#FF6D6D"/>
<stop offset="0.357897" stop-color="#F42828"/>
<stop offset="0.633096" stop-color="#E02A2A"/>
<stop offset="1" stop-color="#E42525"/>
</radialGradient>
<linearGradient id="paint2_linear_736_46356" x1="0" y1="0" x2="424.815" y2="390.407" gradientUnits="userSpaceOnUse">
<stop stop-color="#690303" stop-opacity="0.62"/>
<stop offset="0.134789" stop-color="#650303" stop-opacity="0.16"/>
<stop offset="0.215402" stop-color="#630303" stop-opacity="0"/>
<stop offset="0.718692" stop-color="#4F0404" stop-opacity="0"/>
<stop offset="0.797654" stop-color="#4D0404" stop-opacity="0.15"/>
<stop offset="1" stop-color="#470404" stop-opacity="0.55"/>
</linearGradient>
<linearGradient id="paint3_linear_736_46356" x1="410.597" y1="396.632" x2="817.794" y2="665.767" gradientUnits="userSpaceOnUse">
<stop offset="0.0370143" stop-color="#EA2B2B"/>
<stop offset="0.134219" stop-color="#E06262"/>
<stop offset="0.451646" stop-color="#DA5050"/>
<stop offset="0.485154" stop-color="#AC2222"/>
<stop offset="0.526023" stop-color="#D72F2F"/>
<stop offset="0.581312" stop-color="#C03E3E"/>
<stop offset="0.620773" stop-color="#B52424"/>
<stop offset="0.716746" stop-color="#B73030"/>
<stop offset="0.90079" stop-color="#CF1313"/>
<stop offset="1" stop-color="#C01E1E"/>
</linearGradient>
<radialGradient id="paint4_radial_736_46356" cx="0" cy="0" r="1" gradientUnits="userSpaceOnUse" gradientTransform="translate(6.45748e-06 475.438) rotate(-76.0099) scale(338.532 576.672)">
<stop stop-color="#FF6D6D"/>
<stop offset="0.357897" stop-color="#F42828"/>
<stop offset="0.633096" stop-color="#E02A2A"/>
<stop offset="1" stop-color="#E42525"/>
</radialGradient>
<linearGradient id="paint5_linear_736_46356" x1="0" y1="0" x2="424.864" y2="390.335" gradientUnits="userSpaceOnUse">
<stop stop-color="#690303" stop-opacity="0.62"/>
<stop offset="0.134789" stop-color="#650303" stop-opacity="0.16"/>
<stop offset="0.215402" stop-color="#630303" stop-opacity="0"/>
<stop offset="0.718692" stop-color="#4F0404" stop-opacity="0"/>
<stop offset="0.797654" stop-color="#4D0404" stop-opacity="0.15"/>
<stop offset="1" stop-color="#470404" stop-opacity="0.55"/>
</linearGradient>
</defs>
</svg>
