<svg width="25" height="25" viewBox="0 0 25 25" fill="none" xmlns="http://www.w3.org/2000/svg">
<path d="M19.5 21.5H5.5C4.39543 21.5 3.5 20.6046 3.5 19.5V5.5C3.5 4.39543 4.39543 3.5 5.5 3.5H19.5C20.6046 3.5 21.5 4.39543 21.5 5.5V19.5C21.5 20.6046 20.6046 21.5 19.5 21.5ZM5.5 5.5V19.5H19.5V5.5H5.5ZM18.5 17.5H6.5L9.5 13.5L10.5 14.5L13.5 10.5L18.5 17.5ZM9 11.5C8.17157 11.5 7.5 10.8284 7.5 10C7.5 9.17157 8.17157 8.5 9 8.5C9.82843 8.5 10.5 9.17157 10.5 10C10.5 10.8284 9.82843 11.5 9 11.5Z" fill="white"/>
</svg>
