<svg width="147" height="118" viewBox="0 0 147 118" fill="none" xmlns="http://www.w3.org/2000/svg">
<path d="M77.658 84.3969C76.3585 85.0605 74.9278 85.4057 73.4776 85.4057C72.0274 85.4057 70.5968 85.0605 69.2972 84.3969L35.5391 66.9962V95.8001C35.5404 96.5232 35.7369 97.2318 36.1066 97.8464C36.4762 98.461 37.0044 98.9574 37.6321 99.2802L71.8066 116.901C72.3306 117.172 72.9085 117.313 73.4945 117.313C74.0805 117.313 74.6584 117.172 75.1824 116.901L109.357 99.2802C109.985 98.9574 110.513 98.461 110.882 97.8464C111.252 97.2318 111.449 96.5232 111.45 95.8001V66.9846L77.658 84.3969Z" fill="white"/>
<path d="M76.3217 17.3231L68.8499 13.553L62.2783 16.9287L69.7276 20.7105C72.327 19.388 73.6323 18.7036 76.3217 17.3231Z" fill="white"/>
<path d="M95.9805 36.2895L100.088 38.4008L102.62 37.1015L98.5123 34.9902L95.9805 36.2895Z" fill="white"/>
<path d="M71.1289 52.1247L68.5745 50.7559L66.2002 51.9855L68.7546 53.3428L71.1289 52.1247Z" fill="white"/>
<path d="M52.666 54.1534C60.7005 58.3875 64.7064 60.4872 73.2698 64.8954L93.1083 54.6522C84.635 50.1977 80.6628 48.0863 72.6396 43.8174C64.7064 47.9007 60.7905 49.9308 52.666 54.1534ZM62.2421 51.4853L64.1438 50.534L65.8655 49.6408L67.7109 48.6548C67.8196 48.5927 67.9374 48.5496 68.0597 48.5272C68.1716 48.5488 68.2786 48.5921 68.3748 48.6548L70.6254 49.9076L72.8084 51.0677L75.149 52.2277C75.3178 52.3205 75.4078 52.3901 75.3965 52.4249C75.3853 52.4597 75.3065 52.5177 75.1602 52.5989L73.2022 53.527L71.4806 54.4086L69.6914 55.4178C69.5877 55.4798 69.4728 55.5193 69.3538 55.5338C69.2301 55.5104 69.1117 55.4632 69.005 55.3946L66.7544 54.1534L64.5714 52.9933L62.2196 51.8333C62.0508 51.7405 61.9833 51.6825 61.9945 51.6361C62.0058 51.5897 62.0958 51.5665 62.2421 51.4853ZM57.3809 54.1766C57.1681 54.1446 56.9576 54.0981 56.7508 54.0374C56.5595 53.933 56.5707 53.7822 56.7508 53.585C57.2009 53.1674 57.8085 52.6685 58.5737 52.0885C59.1926 52.4133 60.1603 52.8425 61.4544 53.3646C64.3914 54.5246 67.1708 55.5223 69.7702 56.2763C69.2498 56.4439 68.7388 56.6414 68.2398 56.8679C67.8872 57.0548 67.5069 57.1803 67.1145 57.2391C66.7317 57.1833 66.3549 57.0901 65.9892 56.9607C63.4799 56.1951 61.2181 55.4527 59.1814 54.7218C58.5926 54.5022 57.9913 54.3201 57.3809 54.1766ZM80.1451 51.1373L80.6628 50.8589C81.4414 50.4455 82.1931 49.9805 82.9133 49.4668C83.7657 49.9334 84.5921 50.4484 85.3889 51.0097C85.794 51.2997 85.9291 51.5085 85.704 51.6129C85.5008 51.7134 85.2849 51.7837 85.0626 51.8217C84.4374 52.0041 83.8336 52.257 83.2622 52.5757L83.0596 52.6917L85.749 54.107C86.0012 53.5236 86.1535 52.8995 86.1991 52.2625C86.2 52.2013 86.2242 52.143 86.2666 52.1001C86.4231 52.0733 86.5828 52.0733 86.7393 52.1001L88.6185 52.4597C88.7424 52.4785 88.8633 52.5136 88.9785 52.5641C89.0686 52.5641 89.1023 52.7033 89.1023 52.8541C89.1158 53.4169 89.0359 53.9779 88.866 54.513C88.8567 54.5562 88.839 54.5971 88.8138 54.633C88.7887 54.6689 88.7567 54.6991 88.7198 54.7218C88.5306 54.7639 88.335 54.7639 88.1459 54.7218L86.3567 54.4202L87.932 55.209L88.4497 55.4642C88.641 55.557 88.7422 55.6382 88.7422 55.673C88.6671 55.7553 88.5747 55.8188 88.4722 55.8586L86.7055 56.7751C86.5916 56.8513 86.4587 56.8916 86.3229 56.8911C86.1966 56.8587 86.0753 56.8079 85.9628 56.7403L81.7206 54.4202L80.7866 53.933C79.1267 54.9024 77.5258 55.9756 75.9929 57.1463C76.7919 57.0303 77.6471 56.8679 78.5473 56.6823C79.6367 56.4524 80.7114 56.1541 81.7655 55.789C82.3367 56.3507 82.8706 56.9515 83.3634 57.5871C83.4985 57.8191 83.476 57.9815 83.2959 58.0743C83.0268 58.1066 82.7549 58.1066 82.4857 58.0743C81.6643 58.1319 80.8481 58.2521 80.0439 58.4339C77.9629 58.8345 75.8634 59.1249 73.7536 59.304C72.9322 60.3712 72.7296 61.0092 73.1347 61.218C73.5398 61.4269 74.9352 61.2181 76.9944 60.4292C77.0134 60.8959 77.1125 61.3554 77.287 61.7865C77.4445 62.1345 77.4445 62.3665 77.287 62.4477C76.9947 62.5716 76.6938 62.6724 76.3867 62.7493C74.4669 63.4519 72.3629 63.3981 70.4791 62.5985C70.1734 62.4985 69.8961 62.323 69.6711 62.0874C69.4462 61.8517 69.2805 61.563 69.1885 61.2463C69.0964 60.9296 69.0808 60.5945 69.1429 60.2701C69.2051 59.9458 69.3432 59.642 69.5451 59.3852C67.5351 59.3412 65.5291 59.1824 63.5362 58.9096C63.174 58.8744 62.8181 58.7885 62.4784 58.6544C62.3321 58.5848 62.2871 58.3643 62.3321 58.0047C62.3745 57.5277 62.348 57.0468 62.2533 56.5779C65.1299 57.1905 68.0594 57.5014 70.9967 57.5059C73.0841 55.4886 75.4181 53.761 77.9396 52.3669L72.8759 49.664L68.6674 47.4715C68.4873 47.3787 68.3973 47.3091 68.4086 47.2743C68.4198 47.2395 68.4873 47.1815 68.6336 47.1003L70.4003 46.1955C70.5176 46.1233 70.6476 46.0759 70.7829 46.0563C70.9059 46.0823 71.0238 46.1294 71.1317 46.1955L75.239 48.446L80.1451 51.1373Z" fill="white"/>
<path d="M107.816 34.4448L103.697 32.3335L101.222 33.5979L105.329 35.7208L107.816 34.4448Z" fill="white"/>
<path d="M80.8485 26.4163L87.4651 23.0174L79.847 19.1196L73.2529 22.5185L80.8485 26.4163Z" fill="white"/>
<path d="M144.937 37.2289L74.5846 0.965871C74.2361 0.78256 73.8505 0.687012 73.4593 0.687012C73.0681 0.687012 72.6825 0.78256 72.334 0.965871L1.98199 37.2289C1.56944 37.4403 1.22232 37.7662 0.979655 38.1699C0.73699 38.5737 0.608398 39.0392 0.608398 39.5141C0.608398 39.9891 0.73699 40.4546 0.979655 40.8584C1.22232 41.2621 1.56944 41.588 1.98199 41.7994L72.334 78.0624C72.6825 78.2457 73.0681 78.3413 73.4593 78.3413C73.8505 78.3413 74.2361 78.2457 74.5846 78.0624L144.937 41.7994C145.349 41.588 145.696 41.2621 145.939 40.8584C146.182 40.4546 146.31 39.9891 146.31 39.5141C146.31 39.0392 146.182 38.5737 145.939 38.1699C145.696 37.7662 145.349 37.4403 144.937 37.2289ZM54.1834 17.2993L60.2823 14.2484L63.5456 12.5779L68.0467 10.2578C68.1671 10.1835 68.3013 10.1361 68.4406 10.1186C68.5691 10.1502 68.6937 10.1969 68.8119 10.2578L73.4143 12.6475L79.5133 15.7332L81.7638 14.5732C83.169 13.8918 84.5298 13.1168 85.8373 12.2531C87.2889 13.0187 88.4254 13.6916 89.2694 14.2484C89.5957 14.4572 89.6407 14.6312 89.4044 14.7472C89.1401 14.8752 88.8599 14.965 88.5717 15.014C87.5306 15.317 86.5264 15.7412 85.5785 16.2785L83.0916 17.5545L89.4157 20.7794L93.8492 22.9951C94.0293 23.0879 94.1081 23.1575 94.0968 23.1923C94.0855 23.2271 94.0068 23.2852 93.838 23.3664L89.7532 25.408L86.0623 27.2989L79.9409 30.4194C79.8363 30.4817 79.7221 30.5249 79.6033 30.547C79.4798 30.5292 79.3612 30.4858 79.2545 30.4194L76.5313 29.0158C76.3625 28.923 76.295 28.8533 76.295 28.8185C76.3552 28.7453 76.4327 28.6894 76.5201 28.6562L77.8253 27.9833L70.241 24.074L66.4601 26.0113L60.935 28.9229C60.8306 28.9925 60.7103 29.0325 60.5862 29.039C60.4716 29.0142 60.3615 28.9711 60.2599 28.9114L57.3454 27.3917C57.1654 27.2989 57.0866 27.2293 57.0978 27.1945C57.1091 27.1597 57.1766 27.1133 57.3116 27.0321L62.938 24.2364L66.7639 22.2759L59.3259 18.471L57.9193 19.1902C57.8007 19.2666 57.6651 19.3105 57.5255 19.3178C57.3975 19.297 57.275 19.2496 57.1654 19.1786L54.2396 17.6937C54.0596 17.6009 53.9808 17.5313 53.9921 17.4849C54.0033 17.4385 54.0259 17.3805 54.1834 17.2993ZM35.7064 25.9532L37.8782 24.7932C37.9713 24.7294 38.0814 24.697 38.1932 24.7004C38.3283 24.7275 38.4577 24.7786 38.5759 24.8512L43.0207 27.2409L49.9186 30.8834L50.4025 30.6398C51.2853 30.2102 52.1256 29.6935 52.9118 29.0969C54.0371 29.677 55.1624 30.315 56.2876 30.9994C56.6027 31.1966 56.6702 31.3475 56.4677 31.4519C56.356 31.5011 56.2388 31.5362 56.1189 31.5563L55.725 31.6374C55.0852 31.8344 54.4668 32.0988 53.8795 32.4263L53.3732 32.6931L60.5637 36.5096L64.7722 38.6905C64.9973 38.8181 65.0085 38.9225 64.7722 39.027L62.5217 40.187C62.4061 40.2516 62.2804 40.2947 62.1503 40.3146C62.0346 40.2938 61.9239 40.2505 61.824 40.187L57.7393 37.9365C50.9876 34.3056 47.5218 32.4727 40.2863 28.6562L35.7289 26.3361C35.5376 26.2317 35.4363 26.1621 35.4363 26.1157C35.4363 26.0693 35.5714 26.0344 35.7064 25.9532ZM41.8841 47.6693C41.0185 48.1514 40.0428 48.3838 39.0597 48.3421C37.3624 48.0672 35.7316 47.4608 34.2548 46.5556C33.7372 46.2888 33.4896 46.0916 33.5009 45.9988C33.5121 45.906 33.7147 45.7204 34.0973 45.4304C34.5611 45.0982 34.9458 44.6619 35.2225 44.1543C36.0778 44.6995 36.8879 45.1752 37.6644 45.5812C37.9305 45.7294 38.2283 45.807 38.5308 45.807C38.8334 45.807 39.1311 45.7294 39.3973 45.5812L43.392 43.5047L38.002 40.6162L32.4994 43.5047C30.8565 44.3863 30.0238 44.8271 28.3471 45.7436C28.2306 45.8173 28.1002 45.8648 27.9645 45.8828C27.8429 45.852 27.7257 45.8052 27.6157 45.7436L24.8588 44.3167C24.6788 44.2239 24.6 44.1543 24.6112 44.0963C24.6225 44.0383 24.69 44.0035 24.8475 43.9223L29.1461 41.7298L34.6712 38.8413L29.945 36.2196L25.2301 38.6789L22.6307 40.1174C22.5263 40.1869 22.406 40.2269 22.2819 40.2334C22.1536 40.2218 22.0299 40.178 21.9218 40.1058L19.0974 38.6325C18.9173 38.5397 18.8386 38.4817 18.8386 38.4353C18.8386 38.3889 18.9399 38.3425 19.0861 38.2613L22.0343 36.7765L26.3329 34.526L29.0335 33.0643C29.1495 32.9807 29.286 32.9325 29.4274 32.9251C29.5553 32.9459 29.6778 32.9933 29.7875 33.0643L34.3448 35.5584L37.5969 37.2869L40.7026 35.6744C37.2143 33.8067 35.4363 32.8671 31.8017 30.9414L28.0771 32.8787C27.972 32.9452 27.8515 32.9812 27.7282 32.9831C27.5999 32.964 27.477 32.9165 27.3681 32.8439L24.6675 31.417C24.4874 31.3242 24.3862 31.2546 24.3974 31.2082C24.4087 31.1618 24.4762 31.1154 24.6225 31.0342L27.9983 29.3522L29.0335 28.8185L30.7665 27.8557C30.8733 27.7915 30.9923 27.7519 31.1153 27.7397C31.2417 27.7721 31.3629 27.8229 31.4754 27.8905L35.8752 30.2802L39.026 31.9507C39.5026 31.3204 39.9067 30.6353 40.23 29.909C40.2646 29.839 40.3197 29.7822 40.3875 29.7466C40.6042 29.7016 40.8293 29.73 41.029 29.8278L43.7859 30.721C43.9146 30.752 44.0393 30.7987 44.1572 30.8602C44.1857 30.8733 44.2111 30.8927 44.2316 30.917C44.2521 30.9414 44.2671 30.97 44.2757 31.001C44.2843 31.0319 44.2862 31.0645 44.2813 31.0963C44.2764 31.1281 44.2647 31.1584 44.2472 31.185C43.7513 32.1135 43.1711 32.9913 42.5143 33.8068L48.0056 36.7417C49.0521 36.5793 50.1549 36.3588 51.2577 36.1268C51.8856 36.0106 52.5003 35.8279 53.0919 35.5816C53.9594 36.2274 54.7897 36.9246 55.5787 37.6697C55.7363 37.8553 55.7363 37.9829 55.5787 38.0641C55.3327 38.15 55.0728 38.1855 54.8135 38.1685C54.4185 38.156 54.0231 38.1793 53.632 38.2381L51.3814 38.5861L54.4647 40.2334L58.6282 42.4143C58.8195 42.5071 58.9095 42.5883 58.9095 42.6231C58.9095 42.6579 58.8308 42.7159 58.6845 42.7855L57.0303 43.5743L55.7813 44.2239L52.5292 45.9756C52.4136 46.0402 52.2879 46.0833 52.1579 46.1032C52.0264 46.0761 51.9006 46.0251 51.7866 45.9524L49.3447 44.6416C49.1759 44.5604 49.0971 44.4907 49.1084 44.4559C49.1197 44.4211 49.1984 44.3631 49.3672 44.2703L53.0806 42.3447L43.9659 37.4609L40.8602 39.0733C42.4468 39.9086 43.2232 40.3378 44.7874 41.173L49.2322 43.4931C49.3897 43.5743 49.4685 43.6439 49.4572 43.6787C49.446 43.7135 49.356 43.7831 49.1872 43.8643L46.1039 45.4072L44.0222 46.486L41.8841 47.6693ZM99.048 55.1631L91.5649 58.9565L84.4645 62.6338L72.8854 68.7009C72.7764 68.7665 72.6515 68.7986 72.5253 68.7936C72.391 68.7701 72.2616 68.723 72.1427 68.6544L69.4196 67.274C69.2395 67.1812 69.1495 67.1116 69.1495 67.0768C69.1495 67.042 69.2283 66.9956 69.3746 66.9144L70.5786 66.2996C61.9702 61.903 57.953 59.8149 49.8736 55.6156L48.5795 56.2768C48.4706 56.3494 48.3478 56.3969 48.2194 56.416C48.0973 56.3871 47.9798 56.3402 47.8706 56.2768L45.305 54.9543C45.1474 54.8731 45.0799 54.8151 45.0799 54.7687C45.0799 54.7223 45.17 54.6759 45.3275 54.5947L57.4804 48.3305L63.5456 45.1984L71.8614 40.8366C71.9769 40.7625 72.1083 40.7187 72.244 40.709C72.3674 40.7268 72.4861 40.7702 72.5928 40.8366L76.6663 43.0639C83.6993 46.7992 87.2101 48.6553 94.5807 52.5182L99.0142 54.7687C99.2055 54.8731 99.3068 54.9427 99.2956 54.9891C99.2843 55.0355 99.2055 55.0819 99.048 55.1631ZM124.333 40.5814L122.352 41.6022C122.235 41.6696 122.104 41.7055 121.97 41.7066C121.835 41.687 121.704 41.6397 121.587 41.5674L121.193 41.347C120.394 40.9062 119.517 40.4538 118.583 39.9666L116.107 41.2426L117.536 41.9734L121.778 44.0731C122.004 44.1891 122.004 44.2935 121.778 44.4211L119.652 45.5116C119.541 45.5786 119.419 45.622 119.292 45.6392C119.168 45.6373 119.048 45.6012 118.943 45.5348L114.824 43.3655L113.395 42.6347L110.852 43.9455L114.228 45.6044C114.397 45.6972 114.487 45.7552 114.475 45.8016C114.464 45.848 114.397 45.8944 114.25 45.964L112.315 46.9616C112.203 47.025 112.081 47.0681 111.955 47.0892C111.828 47.0703 111.706 47.027 111.595 46.9616L107.094 44.6416L100.837 41.3354L98.8229 42.3678L106.846 46.5092L111.246 48.7133C111.426 48.8061 111.505 48.8641 111.505 48.9105C111.505 48.9569 111.415 49.0033 111.28 49.0729L109.097 50.2329C108.99 50.2971 108.871 50.3367 108.748 50.349C108.622 50.3278 108.5 50.2847 108.388 50.2214L104.112 47.9013L96.111 43.7483L92.7352 45.5464C92.6247 45.6134 92.5023 45.6568 92.3751 45.674C92.2536 45.6432 92.1363 45.5964 92.0263 45.5348L89.3931 44.1543C89.1906 44.0499 89.2018 43.9339 89.3931 43.8179L92.8928 42.0778L85.511 38.2265L81.3587 36.1268C81.1899 36.034 81.0999 35.9644 81.1112 35.9296C81.1224 35.8948 81.2012 35.8368 81.3362 35.7672L83.4855 34.6652C83.5891 34.6031 83.704 34.5637 83.8231 34.5492C83.9451 34.5725 84.0628 34.6156 84.1719 34.6768L88.2004 36.8461L95.6047 40.6858L97.6077 39.665L91.745 36.6256L87.3339 34.4564C87.1651 34.3636 87.0751 34.294 87.0863 34.2592C87.0976 34.2243 87.1764 34.1664 87.3226 34.0852L89.2919 33.0759C89.391 33.023 89.501 32.9954 89.6126 32.9954C89.7242 32.9954 89.8342 33.023 89.9333 33.0759L92.9603 34.7116L95.4809 33.4123L94.2656 32.7859L90.2484 30.779C90.1021 30.7094 90.0458 30.6398 90.0571 30.605C90.0683 30.5702 90.1471 30.5122 90.3046 30.431L92.4089 29.3522C92.5108 29.2953 92.6249 29.2655 92.7408 29.2655C92.8567 29.2655 92.9708 29.2953 93.0728 29.3522L96.9662 31.417L98.1928 32.0435L100.668 30.779L98.5529 29.735L97.9115 29.4218C97.7427 29.3406 97.6414 29.2594 97.6527 29.2246C97.6639 29.1898 97.7427 29.1318 97.889 29.0506L99.8807 28.0297C99.9902 27.9624 100.114 27.9226 100.241 27.9137C100.37 27.9309 100.493 27.9786 100.601 28.0529L104.866 30.3034L119.731 37.9365L124.299 40.2566C124.49 40.3494 124.592 40.4306 124.592 40.4654C124.592 40.5002 124.468 40.5118 124.333 40.5814ZM131.748 39.0733L129.622 40.1522C129.509 40.2234 129.382 40.267 129.25 40.2798C129.124 40.2515 129.003 40.2046 128.89 40.1406L124.715 37.9481L120.755 35.9064L119.427 36.6604C119.318 36.7204 119.196 36.7517 119.072 36.7517C118.949 36.7517 118.827 36.7204 118.718 36.6604L116.163 35.3496C115.976 35.2568 115.886 35.1872 115.893 35.1408C115.893 35.1408 115.972 35.048 116.107 34.9784L116.659 34.7232L117.581 34.2939L111.55 31.1967L110.177 31.9622C110.063 32.0286 109.936 32.0683 109.806 32.0783C109.688 32.0467 109.574 32 109.468 31.9391L106.959 30.6514C106.711 30.5238 106.711 30.4078 106.959 30.2918L107.533 30.0134L108.455 29.5958L104.843 27.7281L100.747 25.6864C100.59 25.6052 100.5 25.5356 100.511 25.5008C100.522 25.466 100.601 25.3964 100.747 25.3268L102.919 24.1668C103.048 24.0927 103.189 24.0454 103.335 24.0276C103.451 24.0465 103.563 24.09 103.662 24.1552L107.623 26.2665L111.235 28.1225C112.096 27.6772 112.933 27.1854 113.744 26.6493C114.766 27.1891 115.761 27.7815 116.726 28.4241C116.996 28.5981 117.03 28.7374 116.839 28.8418C116.631 28.9314 116.41 28.9862 116.186 29.0042C115.544 29.1582 114.927 29.4042 114.352 29.735L120.361 32.8439C121.241 32.4252 122.084 31.9284 122.881 31.359C123.804 31.8579 124.805 32.4611 125.908 33.1571C126.19 33.3543 126.246 33.4935 126.066 33.5863C125.846 33.6744 125.615 33.7253 125.379 33.7371C124.734 33.8966 124.113 34.1464 123.534 34.4796L127.484 36.5213L131.771 38.6557C131.962 38.7485 132.041 38.8181 132.03 38.8645C131.956 38.9594 131.859 39.0317 131.748 39.0733Z" fill="white"/>
<path d="M108.552 37.3796L112.952 39.6417L115.438 38.3656L111.027 36.1035L108.552 37.3796Z" fill="white"/>
<path d="M103.29 40.0593L107.69 42.3214L110.233 41.0221L105.833 38.76L103.29 40.0593Z" fill="white"/>
<path d="M145.019 37.2416L74.6666 0.978566C74.3181 0.795255 73.9325 0.699707 73.5413 0.699707C73.1501 0.699707 72.7645 0.795255 72.416 0.978566L2.06405 37.2416C1.6515 37.453 1.30438 37.7789 1.06172 38.1826C0.819056 38.5864 0.69043 39.0519 0.69043 39.5268C0.69043 40.0018 0.819056 40.4673 1.06172 40.871C1.30438 41.2748 1.6515 41.6007 2.06405 41.8121L72.416 78.0751C72.7645 78.2584 73.1501 78.354 73.5413 78.354C73.9325 78.354 74.3181 78.2584 74.6666 78.0751L145.019 41.8121C145.431 41.6007 145.778 41.2748 146.021 40.871C146.264 40.4673 146.392 40.0018 146.392 39.5268C146.392 39.0519 146.264 38.5864 146.021 38.1826C145.778 37.7789 145.431 37.453 145.019 37.2416ZM54.2767 17.312L60.3757 14.2611L63.6277 12.5906L68.1288 10.2705C68.2498 10.1977 68.3837 10.1504 68.5226 10.1313C68.6517 10.161 68.7766 10.2078 68.894 10.2705L73.5076 12.6602L79.6066 15.7459L81.8571 14.5859C83.2598 13.8993 84.6201 13.1245 85.9306 12.2658C87.3709 13.0314 88.5075 13.7043 89.3064 14.2611C89.6327 14.4699 89.6777 14.6439 89.4414 14.7599C89.1771 14.8879 88.8969 14.9777 88.6087 15.0267C87.5677 15.3297 86.5635 15.7539 85.6155 16.2912L83.1287 17.5672L89.4527 20.7921L93.8863 23.0078C94.0663 23.1006 94.1451 23.1702 94.1451 23.205C94.1451 23.2398 94.0438 23.2978 93.8863 23.379L89.7903 25.4207L80.0229 30.4321C79.9184 30.4944 79.8042 30.5376 79.6853 30.5597C79.5619 30.5419 79.4432 30.4985 79.3365 30.4321L76.6134 29.0285C76.4446 28.9357 76.377 28.866 76.377 28.8312C76.4372 28.758 76.5148 28.7021 76.6021 28.6688L77.9074 27.996L70.3231 24.0867L66.5534 26.0239L61.0171 28.9356C60.9127 29.0052 60.7923 29.0452 60.6682 29.0516C60.5536 29.0269 60.4436 28.9838 60.3419 28.9241L57.4275 27.4044C57.2474 27.3116 57.1686 27.242 57.1799 27.2072C57.1911 27.1724 57.2587 27.126 57.3937 27.0448L63.02 24.2491C64.5279 23.4603 65.2706 23.089 66.8347 22.2886L59.3967 18.4837L57.9901 19.2029C57.8715 19.2793 57.7359 19.3232 57.5962 19.3305C57.4683 19.3097 57.3458 19.2623 57.2361 19.1913L54.3104 17.7064C54.1304 17.6136 54.0516 17.544 54.0629 17.4976C54.1217 17.4219 54.1943 17.3589 54.2767 17.312ZM35.7884 25.9659L37.9715 24.8059C38.0601 24.7415 38.1669 24.7089 38.2753 24.7131C38.4103 24.7402 38.5397 24.7913 38.6579 24.8639L43.159 27.2536L50.0569 30.8961L50.5407 30.6525C51.4235 30.2229 52.264 29.7062 53.0501 29.1096C54.1754 29.6897 55.3007 30.3277 56.426 31.0121C56.741 31.2093 56.8085 31.3602 56.606 31.4646C56.4942 31.5138 56.3771 31.5489 56.2571 31.569L55.8633 31.6501C55.2274 31.8478 54.6128 32.1121 54.0291 32.439L53.5115 32.7058L60.702 36.5223L64.9105 38.7032C65.1356 38.8308 65.1468 38.9352 64.9105 39.0396L62.66 40.1997C62.5444 40.2643 62.4187 40.3074 62.2886 40.3273C62.1729 40.3065 62.0622 40.2632 61.9623 40.1997L57.8775 37.9492C51.1259 34.3183 47.6601 32.4854 40.4246 28.6688L35.8672 26.3488C35.6759 26.2444 35.5746 26.1748 35.5746 26.1283C35.5746 26.0819 35.6309 26.0471 35.7884 25.9659ZM41.9662 47.682C41.1011 48.1657 40.125 48.3983 39.1418 48.3548C37.4449 48.0782 35.8144 47.472 34.3369 46.5683C33.8192 46.3015 33.5717 46.1043 33.5829 46.0115C33.5942 45.9187 33.7967 45.7331 34.1793 45.4431C34.6431 45.1109 35.0279 44.6746 35.3046 44.167C36.1598 44.7122 36.9812 45.1879 37.7464 45.5939C38.0126 45.7421 38.3104 45.8197 38.6129 45.8197C38.9154 45.8197 39.2132 45.7421 39.4794 45.5939L43.4741 43.5174L38.084 40.6289L32.5702 43.471L28.4179 45.7099C28.3014 45.7836 28.1709 45.8311 28.0353 45.8491C27.9137 45.8183 27.7965 45.7715 27.6865 45.7099L24.9408 44.283C24.7495 44.1902 24.6708 44.1206 24.682 44.0626C24.6933 44.0046 24.7608 43.9698 24.9183 43.8886L29.2169 41.6961L34.7419 38.8076L29.937 36.2555L25.2221 38.7148L22.6227 40.1533C22.5183 40.2228 22.398 40.2628 22.2739 40.2693C22.1456 40.2578 22.022 40.2139 21.9139 40.1417L19.0894 38.6684C18.9094 38.5756 18.8306 38.5176 18.8418 38.4712C18.8531 38.4248 18.9319 38.3784 19.0782 38.2972L22.0264 36.8123L26.3249 34.5619L29.0255 33.1002C29.1415 33.0166 29.2781 32.9684 29.4194 32.961C29.5474 32.9818 29.6699 33.0291 29.7795 33.1002L34.3481 35.5943L37.5889 37.3228L40.6946 35.7103C37.2063 33.8426 35.4396 32.903 31.7937 30.9773L28.0803 32.9146C27.9707 32.98 27.8469 33.0159 27.7203 33.019C27.5919 32.9999 27.4691 32.9524 27.3602 32.8798L24.6595 31.4529C24.4794 31.3601 24.3782 31.2906 24.3894 31.2441C24.4007 31.1977 24.4682 31.1513 24.6145 31.0701L27.9903 29.3881L29.0368 28.8545L30.7585 27.8916C30.8653 27.8274 30.9843 27.7878 31.1073 27.7756C31.2337 27.808 31.3549 27.8588 31.4674 27.9264L35.946 30.3161L39.0967 31.9866C39.5734 31.3563 39.9774 30.6712 40.3008 29.9449C40.338 29.877 40.3925 29.8209 40.4583 29.7825C40.675 29.7375 40.9001 29.766 41.0998 29.8637L43.8567 30.7569C43.9854 30.7879 44.11 30.8346 44.228 30.8961C44.2565 30.9092 44.282 30.9286 44.3024 30.9529C44.3229 30.9773 44.3379 31.0059 44.3465 31.0369C44.3551 31.0678 44.357 31.1004 44.3521 31.1322C44.3472 31.164 44.3355 31.1943 44.318 31.2209C43.8261 32.1519 43.2457 33.0301 42.5851 33.8426L48.0765 36.7775C49.123 36.6151 50.2257 36.3947 51.3284 36.1627C51.9569 36.0485 52.5717 35.8657 53.1626 35.6175C54.0319 36.2658 54.8659 36.9628 55.6608 37.7056C55.8071 37.8912 55.8071 38.0188 55.6608 38.1C55.415 38.1871 55.1549 38.2226 54.8956 38.2044C54.5193 38.1952 54.1429 38.2185 53.7703 38.274L51.5198 38.622L54.603 40.2693L58.7777 42.4501C58.9578 42.5429 59.0591 42.6242 59.0479 42.659C59.0366 42.6938 58.9691 42.7518 58.8341 42.8214L57.1799 43.6102L55.9196 44.2598L52.6675 46.0115C52.5638 46.1022 52.4323 46.152 52.2962 46.152C52.1602 46.152 52.0286 46.1022 51.9249 46.0115L49.4493 44.6774C49.2805 44.5962 49.2017 44.5266 49.2129 44.4918C49.2242 44.457 49.3143 44.399 49.4718 44.3062L53.1852 42.3805L44.0704 37.4968L40.9647 39.1092C42.5514 39.9445 43.339 40.3737 44.8919 41.2089L49.3368 43.529C49.4943 43.6102 49.5843 43.6798 49.573 43.7146C49.4926 43.7957 49.3968 43.8588 49.2917 43.9002L46.2197 45.4431L44.1267 46.5219L41.9662 47.682ZM99.1301 55.1758L91.647 58.9692L84.5465 62.6465L72.9675 68.7136C72.8585 68.7792 72.7335 68.8113 72.6074 68.8063C72.4735 68.781 72.3444 68.734 72.2248 68.6671L69.5129 67.2867C69.3216 67.1939 69.2316 67.1243 69.2316 67.0895C69.2316 67.0547 69.3104 67.0083 69.4566 66.9271L70.6606 66.3123C62.0523 61.9157 58.0351 59.8276 49.9557 55.6283L48.6728 56.2895C48.5594 56.3611 48.4331 56.4085 48.3015 56.4287C48.1793 56.3998 48.0618 56.3529 47.9526 56.2895L45.387 54.967C45.2408 54.8858 45.162 54.8278 45.162 54.7814C45.162 54.735 45.252 54.6886 45.4095 54.6074L63.6277 45.2111L71.9547 40.8725C72.0733 40.7961 72.2089 40.7522 72.3485 40.7449C72.4679 40.7651 72.5825 40.8083 72.6862 40.8725L76.7597 43.0998C83.7926 46.8351 87.3034 48.6912 94.6852 52.5541L99.1075 54.8046C99.2988 54.909 99.4001 54.9786 99.3889 55.0251C99.3776 55.0715 99.2876 55.0946 99.1301 55.1758ZM124.415 40.5941L122.434 41.6149C122.317 41.6823 122.186 41.7182 122.052 41.7193C121.917 41.6997 121.786 41.6524 121.669 41.5801L121.275 41.3597C120.476 40.9189 119.599 40.4665 118.665 39.9793L116.189 41.2553L117.618 41.9861L121.861 44.0858C122.086 44.2018 122.086 44.3062 121.861 44.4338L119.734 45.5243C119.626 45.589 119.508 45.6323 119.385 45.6519C119.261 45.6525 119.14 45.6162 119.036 45.5475L114.906 43.3782L113.477 42.6474C112.453 43.1694 111.947 43.4246 110.934 43.9582L114.31 45.6171C114.479 45.7099 114.569 45.7679 114.558 45.8143C114.546 45.8607 114.479 45.9071 114.332 45.9767L112.397 46.9743C112.285 47.0377 112.163 47.0808 112.037 47.1019C111.91 47.083 111.788 47.0397 111.677 46.9743L107.232 44.6543C104.666 43.3434 103.395 42.6822 100.885 41.3829L98.8825 42.4153C102.044 44.0626 103.642 44.8862 106.894 46.5567L111.294 48.7608C111.474 48.8536 111.564 48.9116 111.553 48.958C111.542 49.0044 111.463 49.0508 111.328 49.1204L109.145 50.2804C109.041 50.3425 108.926 50.382 108.807 50.3965C108.68 50.3792 108.558 50.3358 108.447 50.2689L104.16 47.9488L96.1593 43.7958L92.7835 45.5939C92.6679 45.6585 92.5422 45.7016 92.4122 45.7215C92.2906 45.6907 92.1733 45.6439 92.0633 45.5823L89.4302 44.2018C89.2277 44.0974 89.2389 43.9814 89.4302 43.8654L92.9185 42.1253L85.5368 38.274L81.3958 36.1743C81.2157 36.0815 81.1369 36.0119 81.1369 35.9771C81.1369 35.9423 81.2269 35.8843 81.362 35.8147L83.5113 34.7127C83.6181 34.6485 83.7371 34.6089 83.8601 34.5967C83.9779 34.6225 84.0916 34.6655 84.1977 34.7243L88.2262 36.8936L95.6304 40.7333L97.6334 39.7125L91.782 36.6731L87.4272 34.4806C87.2584 34.3878 87.1684 34.3183 87.1797 34.2835C87.1909 34.2487 87.2697 34.1907 87.4159 34.1095L89.3852 33.1002C89.4843 33.0473 89.5943 33.0197 89.7059 33.0197C89.8175 33.0197 89.9275 33.0473 90.0266 33.1002L92.9861 34.6895L95.5179 33.3902L94.2913 32.7638L90.2742 30.7569C90.1279 30.6873 90.0716 30.6177 90.0828 30.5829C90.1545 30.51 90.2384 30.451 90.3304 30.4089L92.446 29.33C92.5459 29.2732 92.6581 29.2433 92.7723 29.2433C92.8864 29.2433 92.9986 29.2732 93.0986 29.33L97.0033 31.3949L98.2186 32.0214L100.694 30.7569L98.5786 29.7129L97.9485 29.3996C97.7684 29.3184 97.6784 29.2373 97.6784 29.2025C97.6784 29.1677 97.7685 29.1097 97.9148 29.0285L99.9065 28.0076C100.016 27.9403 100.139 27.9005 100.267 27.8916C100.399 27.9102 100.525 27.9576 100.638 28.0308L104.891 30.2813C110.765 33.309 113.702 34.8171 119.768 37.9144L124.325 40.2345C124.516 40.3273 124.629 40.4085 124.617 40.4433C124.606 40.4781 124.561 40.5245 124.415 40.5941ZM131.83 39.086L129.704 40.1649C129.591 40.2361 129.464 40.2797 129.332 40.2925C129.208 40.2604 129.087 40.2137 128.972 40.1533L124.809 37.9608L120.848 35.9191L119.509 36.6731C119.4 36.7331 119.278 36.7644 119.154 36.7644C119.031 36.7644 118.909 36.7331 118.8 36.6731L116.245 35.3623C116.065 35.2695 115.964 35.1999 115.975 35.1535C115.987 35.1071 116.054 35.0607 116.189 34.9911L116.741 34.7359L117.663 34.3066C115.233 33.0654 114.029 32.4506 111.643 31.2093L110.259 31.9749C110.148 32.0397 110.026 32.0793 109.899 32.091C109.777 32.0601 109.66 32.0134 109.55 31.9518L107.041 30.6641C106.804 30.5365 106.793 30.4205 107.041 30.3045L107.615 30.0261L108.537 29.6085L104.925 27.7408L100.84 25.6991C100.672 25.6179 100.582 25.5483 100.593 25.5135C100.604 25.4787 100.683 25.4091 100.829 25.3395L103.001 24.1794C103.13 24.1054 103.271 24.0581 103.417 24.0402C103.533 24.0592 103.645 24.1027 103.744 24.1679L107.705 26.2792L111.339 28.112C112.2 27.6667 113.038 27.1749 113.849 26.6388C114.871 27.1786 115.866 27.771 116.831 28.4136C117.101 28.5876 117.134 28.7268 116.943 28.8312C116.735 28.9208 116.515 28.9757 116.29 28.9937C115.65 29.1497 115.032 29.3956 114.456 29.7245L120.465 32.8334C121.348 32.4115 122.194 31.9148 122.997 31.3485C123.909 31.8474 124.91 32.4506 126.013 33.1466C126.294 33.3438 126.35 33.483 126.17 33.5758C125.955 33.6629 125.727 33.7138 125.495 33.7266C124.846 33.8835 124.221 34.1335 123.638 34.4691L127.599 36.5107L131.887 38.6452C132.067 38.738 132.146 38.8076 132.134 38.854C132.058 38.9611 131.952 39.0419 131.83 39.086Z" fill="#FA4242"/>
<rect x="80.9521" y="33.1934" width="37.134" height="17.4007" fill="#FA4242"/>
<rect x="76.4473" y="23.9133" width="37.134" height="17.4007" fill="#FA4242"/>
<rect x="82.0781" y="26.2346" width="37.134" height="17.4007" fill="#FA4242"/>
<rect x="89.9609" y="29.7126" width="37.134" height="17.4007" fill="#FA4242"/>
<rect x="95.5918" y="33.1934" width="37.134" height="11.6004" fill="#FA4242"/>
<rect x="62.9541" y="48.2732" width="37.134" height="11.6004" fill="#FA4242"/>
<rect x="55.0713" y="57.5562" width="34.8834" height="11.6004" fill="#FA4242"/>
<rect x="42.6943" y="48.2732" width="37.134" height="11.6004" fill="#FA4242"/>
<rect x="52.8193" y="40.1523" width="37.134" height="11.6004" fill="#FA4242"/>
<rect x="23.5713" y="37.8335" width="37.134" height="11.6004" fill="#FA4242"/>
<rect x="13.4463" y="33.1934" width="37.134" height="11.6004" fill="#FA4242"/>
<rect x="22.4346" y="28.5535" width="37.134" height="11.6004" fill="#FA4242"/>
<rect x="29.1914" y="23.9133" width="37.134" height="11.6004" fill="#FA4242"/>
<rect x="40.4521" y="29.7126" width="37.134" height="11.6004" fill="#FA4242"/>
<rect x="52.8193" y="20.4324" width="37.134" height="11.6004" fill="#FA4242"/>
<rect x="62.9541" y="19.2732" width="37.134" height="11.6004" fill="#FA4242"/>
<rect x="56.1973" y="14.6331" width="37.134" height="11.6004" fill="#FA4242"/>
<rect x="53.9453" y="13.4736" width="37.134" height="11.6004" fill="#FA4242"/>
<rect x="58.4502" y="8.8335" width="22.5054" height="11.6004" fill="#FA4242"/>
<rect x="68.5752" y="11.1523" width="22.5054" height="11.6004" fill="#FA4242"/>
</svg>
