<svg width="28" height="23" viewBox="0 0 28 23" fill="none" xmlns="http://www.w3.org/2000/svg">
<path d="M14.7931 16.3451C14.5452 16.4717 14.2723 16.5376 13.9956 16.5376C13.7189 16.5376 13.446 16.4717 13.198 16.3451L6.75757 13.0254V18.5207C6.75783 18.6586 6.79532 18.7938 6.86584 18.9111C6.93636 19.0283 7.03712 19.123 7.15687 19.1846L13.6768 22.5464C13.7767 22.598 13.887 22.6249 13.9988 22.6249C14.1106 22.6249 14.2209 22.598 14.3208 22.5464L20.8407 19.1846C20.9605 19.123 21.0612 19.0283 21.1318 18.9111C21.2023 18.7938 21.2398 18.6586 21.24 18.5207V13.0232L14.7931 16.3451Z" fill="#212121"/>
<path d="M14.5384 3.54887L13.1129 2.82959L11.8591 3.47362L13.2803 4.19511C13.7762 3.94281 14.0253 3.81223 14.5384 3.54887Z" fill="#FA4242"/>
<path d="M18.2888 7.16731L19.0724 7.5701L19.5554 7.32223L18.7719 6.91943L18.2888 7.16731Z" fill="#FA4242"/>
<path d="M13.5475 10.1882L13.0602 9.927L12.6072 10.1616L13.0945 10.4205L13.5475 10.1882Z" fill="#FA4242"/>
<path d="M10.0251 10.5754C11.558 11.3832 12.3222 11.7838 13.956 12.6248L17.7408 10.6706C16.1243 9.82076 15.3664 9.41796 13.8358 8.60352C12.3222 9.38255 11.5752 9.76985 10.0251 10.5754ZM11.8521 10.0664L12.2149 9.88494L12.5434 9.71453L12.8954 9.52641C12.9162 9.51456 12.9387 9.50633 12.962 9.50206C12.9833 9.50618 13.0037 9.51445 13.0221 9.52641L13.4515 9.76542L13.868 9.98674L14.3145 10.2081C14.3467 10.2258 14.3639 10.239 14.3617 10.2457C14.3596 10.2523 14.3445 10.2634 14.3166 10.2789L13.9431 10.4559L13.6146 10.6241L13.2733 10.8167C13.2535 10.8285 13.2316 10.836 13.2089 10.8388C13.1853 10.8343 13.1627 10.8253 13.1423 10.8123L12.713 10.5754L12.2965 10.3541L11.8478 10.1328C11.8156 10.1151 11.8027 10.104 11.8049 10.0952C11.807 10.0863 11.8242 10.0819 11.8521 10.0664V10.0664ZM10.9247 10.5799C10.8841 10.5738 10.8439 10.5649 10.8044 10.5533C10.7679 10.5334 10.7701 10.5046 10.8044 10.467C10.8903 10.3873 11.0062 10.2922 11.1522 10.1815C11.2703 10.2435 11.4549 10.3254 11.7018 10.4249C12.2621 10.6463 12.7924 10.8366 13.2883 10.9805C13.189 11.0124 13.0916 11.0501 12.9963 11.0933C12.9291 11.129 12.8565 11.1529 12.7817 11.1641C12.7086 11.1535 12.6367 11.1357 12.567 11.111C12.0882 10.965 11.6567 10.8233 11.2682 10.6839C11.1558 10.642 11.0411 10.6073 10.9247 10.5799V10.5799ZM15.2677 10L15.3664 9.94691C15.515 9.86804 15.6584 9.77933 15.7958 9.68133C15.9584 9.77034 16.1161 9.8686 16.2681 9.97568C16.3454 10.031 16.3711 10.0708 16.3282 10.0908C16.2895 10.1099 16.2483 10.1233 16.2058 10.1306C16.0866 10.1654 15.9714 10.2136 15.8624 10.2745L15.8237 10.2966L16.3368 10.5666C16.3849 10.4553 16.414 10.3362 16.4227 10.2147C16.4228 10.203 16.4275 10.1919 16.4356 10.1837C16.4654 10.1786 16.4959 10.1786 16.5257 10.1837L16.8842 10.2523C16.9079 10.2559 16.931 10.2626 16.9529 10.2722C16.9701 10.2722 16.9766 10.2988 16.9766 10.3276C16.9791 10.4349 16.9639 10.542 16.9315 10.644C16.9297 10.6523 16.9263 10.6601 16.9215 10.6669C16.9167 10.6738 16.9106 10.6796 16.9036 10.6839C16.8675 10.6919 16.8302 10.6919 16.7941 10.6839L16.4527 10.6263L16.7533 10.7768L16.852 10.8255C16.8885 10.8432 16.9079 10.8587 16.9079 10.8654C16.8935 10.8811 16.8759 10.8932 16.8563 10.9008L16.5193 11.0756C16.4976 11.0902 16.4722 11.0979 16.4463 11.0978C16.4222 11.0916 16.3991 11.0819 16.3776 11.069L15.5682 10.6263L15.3901 10.5334C15.0734 10.7183 14.768 10.9231 14.4755 11.1464C14.6279 11.1243 14.7911 11.0933 14.9628 11.0579C15.1707 11.0141 15.3757 10.9571 15.5768 10.8875C15.6858 10.9947 15.7876 11.1093 15.8817 11.2305C15.9074 11.2748 15.9031 11.3058 15.8688 11.3235C15.8174 11.3296 15.7656 11.3296 15.7142 11.3235C15.5575 11.3345 15.4018 11.3574 15.2484 11.3921C14.8513 11.4685 14.4508 11.5239 14.0483 11.5581C13.8916 11.7617 13.8529 11.8834 13.9302 11.9233C14.0075 11.9631 14.2737 11.9233 14.6666 11.7728C14.6702 11.8618 14.6891 11.9495 14.7224 12.0317C14.7524 12.0981 14.7524 12.1424 14.7224 12.1578C14.6666 12.1815 14.6092 12.2007 14.5506 12.2154C14.1844 12.3494 13.783 12.3392 13.4236 12.1866C13.3652 12.1675 13.3123 12.1341 13.2694 12.0891C13.2265 12.0441 13.1949 11.9891 13.1773 11.9286C13.1598 11.8682 13.1568 11.8043 13.1687 11.7424C13.1805 11.6805 13.2069 11.6226 13.2454 11.5736C12.8619 11.5652 12.4792 11.5349 12.099 11.4828C12.0299 11.4761 11.962 11.4597 11.8972 11.4341C11.8693 11.4209 11.8607 11.3788 11.8693 11.3102C11.8774 11.2192 11.8723 11.1275 11.8542 11.038C12.403 11.1549 12.9619 11.2142 13.5223 11.215C13.9206 10.8302 14.3659 10.5006 14.8469 10.2346L13.8808 9.71895L13.0779 9.30067C13.0436 9.28296 13.0264 9.26968 13.0285 9.26304C13.0307 9.2564 13.0436 9.24534 13.0715 9.22984L13.4085 9.05722C13.4309 9.04343 13.4557 9.03441 13.4815 9.03066C13.505 9.03562 13.5275 9.0446 13.5481 9.05722L14.3317 9.48657L15.2677 10Z" fill="#FA4242"/>
<path d="M20.5469 6.81539L19.7611 6.4126L19.2888 6.65383L20.0724 7.05884L20.5469 6.81539Z" fill="#FA4242"/>
<path d="M15.402 5.28392L16.6643 4.63546L15.2109 3.89185L13.9529 4.5403L15.402 5.28392Z" fill="#FA4242"/>
<path d="M27.6288 7.34654L14.2069 0.428201C14.1404 0.393229 14.0668 0.375 13.9922 0.375C13.9175 0.375 13.844 0.393229 13.7775 0.428201L0.355562 7.34654C0.276855 7.38688 0.210631 7.44906 0.164335 7.52608C0.118039 7.60311 0.0935059 7.69192 0.0935059 7.78253C0.0935059 7.87315 0.118039 7.96196 0.164335 8.03898C0.210631 8.11601 0.276855 8.17819 0.355562 8.21853L13.7775 15.1369C13.844 15.1718 13.9175 15.1901 13.9922 15.1901C14.0668 15.1901 14.1404 15.1718 14.2069 15.1369L27.6288 8.21853C27.7075 8.17819 27.7737 8.11601 27.82 8.03898C27.8663 7.96196 27.8908 7.87315 27.8908 7.78253C27.8908 7.69192 27.8663 7.60311 27.82 7.52608C27.7737 7.44906 27.7075 7.38688 27.6288 7.34654V7.34654ZM10.3147 3.54433L11.4782 2.96227L12.1008 2.64358L12.9596 2.20094C12.9825 2.18676 13.0081 2.17772 13.0347 2.17439C13.0592 2.18041 13.083 2.18932 13.1055 2.20094L13.9836 2.65686L15.1472 3.24556L15.5765 3.02424C15.8446 2.89425 16.1042 2.74639 16.3537 2.58161C16.6306 2.72768 16.8474 2.85604 17.0085 2.96227C17.0707 3.00211 17.0793 3.0353 17.0342 3.05744C16.9838 3.08186 16.9303 3.09899 16.8754 3.10834C16.6767 3.16614 16.4852 3.24707 16.3043 3.34958L15.8299 3.59302L17.0364 4.20828L17.8822 4.631C17.9166 4.6487 17.9316 4.66198 17.9294 4.66862C17.9273 4.67526 17.9123 4.68633 17.8801 4.70182L17.1008 5.09133L16.3966 5.45208L15.2287 6.04742C15.2088 6.0593 15.187 6.06754 15.1643 6.07176C15.1408 6.06836 15.1182 6.06008 15.0978 6.04742L14.5783 5.77963C14.5461 5.76192 14.5332 5.74864 14.5332 5.742C14.5447 5.72803 14.5595 5.71736 14.5761 5.71102L14.8251 5.58265L13.3782 4.83682L12.6569 5.20642L11.6028 5.76192C11.5828 5.77518 11.5599 5.78282 11.5362 5.78405C11.5144 5.77932 11.4934 5.77111 11.474 5.75971L10.9179 5.46979C10.8836 5.45208 10.8686 5.4388 10.8707 5.43216C10.8728 5.42552 10.8857 5.41666 10.9115 5.40117L11.9849 4.86781L12.7148 4.49378L11.2958 3.76787L11.0274 3.90508C11.0048 3.91966 10.9789 3.92803 10.9523 3.92942C10.9279 3.92546 10.9045 3.91642 10.8836 3.90287L10.3254 3.61958C10.2911 3.60188 10.276 3.5886 10.2782 3.57975C10.2803 3.57089 10.2846 3.55983 10.3147 3.54433V3.54433ZM6.78959 5.19535L7.20392 4.97403C7.2217 4.96186 7.2427 4.95567 7.26403 4.95633C7.28979 4.96151 7.31449 4.97125 7.33703 4.9851L8.18502 5.44101L9.50102 6.13594L9.59334 6.08947C9.76176 6.00751 9.92209 5.90893 10.0721 5.79511C10.2868 5.90577 10.5014 6.0275 10.7161 6.15808C10.7762 6.1957 10.7891 6.22447 10.7505 6.24439C10.7292 6.25379 10.7068 6.26048 10.6839 6.26431L10.6088 6.2798C10.4867 6.31738 10.3687 6.36782 10.2567 6.4303L10.1601 6.48119L11.5319 7.20933L12.3348 7.6254C12.3778 7.64975 12.3799 7.66967 12.3348 7.68958L11.9055 7.9109C11.8834 7.92322 11.8594 7.93146 11.8346 7.93524C11.8126 7.93128 11.7914 7.92302 11.7724 7.9109L10.9931 7.48155C9.70497 6.78883 9.04375 6.43915 7.66335 5.71102L6.79388 5.26839C6.75739 5.24847 6.73807 5.23519 6.73807 5.22634C6.73807 5.21748 6.76383 5.21084 6.78959 5.19535V5.19535ZM7.96819 9.33838C7.80304 9.43036 7.61689 9.47471 7.42934 9.46675C7.10553 9.4143 6.79439 9.29862 6.51265 9.12592C6.41389 9.07502 6.36667 9.03739 6.36881 9.01969C6.37096 9.00198 6.4096 8.96658 6.48259 8.91125C6.57108 8.84787 6.64448 8.76463 6.69728 8.6678C6.86043 8.77182 7.015 8.86256 7.16313 8.94002C7.21391 8.9683 7.27073 8.9831 7.32844 8.9831C7.38616 8.9831 7.44296 8.9683 7.49374 8.94002L8.25587 8.54386L7.22754 7.99279L6.17774 8.54386C5.86431 8.71206 5.70544 8.79616 5.38556 8.971C5.36333 8.98507 5.33845 8.99412 5.31257 8.99756C5.28938 8.99168 5.26701 8.98275 5.24602 8.971L4.72005 8.69879C4.68571 8.68108 4.67068 8.6678 4.67282 8.65673C4.67497 8.64567 4.68785 8.63903 4.71791 8.62354L5.53799 8.20525L6.59208 7.65417L5.69042 7.154L4.7909 7.62319L4.29498 7.89762C4.27506 7.91088 4.25211 7.91851 4.22843 7.91975C4.20394 7.91755 4.18035 7.90919 4.15973 7.89541L3.62088 7.61433C3.58653 7.59663 3.5715 7.58556 3.5715 7.57671C3.5715 7.56786 3.59083 7.55901 3.61873 7.54352L4.1812 7.26023L5.00129 6.83088L5.51652 6.55202C5.53866 6.53607 5.5647 6.52687 5.59166 6.52546C5.61607 6.52943 5.63944 6.53846 5.66036 6.55202L6.52982 7.02785L7.15025 7.35761L7.74278 7.04998C7.07726 6.69366 6.73806 6.5144 6.04464 6.14701L5.33404 6.51661C5.314 6.52929 5.29101 6.53617 5.26749 6.53652C5.243 6.53288 5.21957 6.52382 5.19879 6.50997L4.68356 6.23775C4.64921 6.22004 4.62989 6.20676 4.63203 6.19791C4.63418 6.18906 4.64706 6.18021 4.67497 6.16471L5.31901 5.8438L5.51652 5.742L5.84714 5.55831C5.86751 5.54606 5.89021 5.53851 5.91369 5.53618C5.93779 5.54236 5.96092 5.55205 5.98238 5.56495L6.82179 6.02086L7.4229 6.33956C7.51384 6.21932 7.59092 6.0886 7.65261 5.95004C7.6592 5.93669 7.66972 5.92585 7.68267 5.91906C7.72401 5.91047 7.76694 5.9159 7.80504 5.93454L8.331 6.10496C8.35556 6.11086 8.37935 6.11978 8.40185 6.13152C8.4073 6.13402 8.41214 6.13772 8.41604 6.14236C8.41995 6.147 8.42282 6.15247 8.42446 6.15837C8.4261 6.16428 8.42646 6.17048 8.42552 6.17655C8.42458 6.18261 8.42236 6.1884 8.41902 6.19349C8.32441 6.37061 8.21371 6.53809 8.08842 6.69366L9.13606 7.25359C9.33572 7.22261 9.54611 7.18056 9.7565 7.1363C9.8763 7.11411 9.99356 7.07925 10.1064 7.03228C10.2719 7.15547 10.4303 7.28848 10.5809 7.43064C10.6109 7.46605 10.6109 7.4904 10.5809 7.50589C10.5339 7.52228 10.4843 7.52904 10.4349 7.52581C10.3595 7.52342 10.2841 7.52787 10.2095 7.53908L9.78011 7.60548L10.3683 7.91975L11.1627 8.33582C11.1992 8.35353 11.2163 8.36902 11.2163 8.37566C11.2163 8.3823 11.2013 8.39337 11.1734 8.40665L10.8578 8.55714L10.6195 8.68108L9.99909 9.01527C9.97703 9.02758 9.95305 9.03582 9.92824 9.03961C9.90315 9.03445 9.87916 9.02471 9.8574 9.01084L9.39153 8.76075C9.35933 8.74526 9.34431 8.73198 9.34645 8.72534C9.3486 8.7187 9.36363 8.70764 9.39583 8.68993L10.1043 8.32255L8.36535 7.39081L7.77284 7.69843C8.07554 7.85778 8.22367 7.93967 8.52207 8.09901L9.37007 8.54165C9.40013 8.55714 9.41515 8.57042 9.413 8.57706C9.41086 8.5837 9.39368 8.59698 9.36148 8.61247L8.77325 8.90682L8.37609 9.11265L7.96819 9.33838ZM18.874 10.7681L17.4464 11.4918L16.0918 12.1934L13.8827 13.3508C13.8619 13.3634 13.8381 13.3695 13.814 13.3685C13.7884 13.3641 13.7637 13.3551 13.741 13.342L13.2215 13.0786C13.1871 13.0609 13.1699 13.0476 13.1699 13.041C13.1699 13.0344 13.185 13.0255 13.2129 13.01L13.4426 12.8927C11.8003 12.0539 11.0339 11.6556 9.49243 10.8544L9.24555 10.9806C9.22478 10.9944 9.20134 11.0035 9.17685 11.0071C9.15355 11.0016 9.13113 10.9927 9.1103 10.9806L8.62083 10.7282C8.59077 10.7128 8.57789 10.7017 8.57789 10.6928C8.57789 10.684 8.59507 10.6751 8.62512 10.6596L10.9437 9.46454L12.1008 8.86698L13.6873 8.03484C13.7094 8.0207 13.7344 8.01233 13.7603 8.01049C13.7839 8.01389 13.8065 8.02217 13.8269 8.03484L14.604 8.45976C15.9458 9.1724 16.6156 9.5265 18.0218 10.2635L18.8676 10.6928C18.9041 10.7128 18.9234 10.726 18.9213 10.7349C18.9191 10.7437 18.9041 10.7526 18.874 10.7681V10.7681ZM23.698 7.98615L23.3201 8.18091C23.2978 8.19375 23.2727 8.2006 23.2471 8.20082C23.2213 8.19708 23.1965 8.18804 23.1741 8.17426L23.099 8.13222C22.9466 8.04812 22.7791 7.9618 22.6009 7.86885L22.1286 8.11229L22.4013 8.25172L23.2106 8.6523C23.2536 8.67444 23.2536 8.69436 23.2106 8.7187L22.8049 8.92674C22.7838 8.93952 22.7604 8.9478 22.7362 8.95108C22.7127 8.95072 22.6897 8.94384 22.6696 8.93116L21.8839 8.5173L21.6112 8.37787L21.1261 8.62796L21.7701 8.94444C21.8023 8.96215 21.8195 8.97322 21.8173 8.98207C21.8152 8.99092 21.8023 8.99977 21.7744 9.01305L21.4052 9.20339C21.3838 9.21546 21.3605 9.22369 21.3365 9.22773C21.3123 9.22411 21.289 9.21586 21.2678 9.20339L20.409 8.76075L19.2154 8.13L18.8311 8.32697L20.3618 9.11707L21.2012 9.53757C21.2356 9.55527 21.2506 9.56634 21.2506 9.57519C21.2506 9.58405 21.2334 9.5929 21.2076 9.60618L20.7912 9.82749C20.7708 9.83974 20.7481 9.84729 20.7246 9.84962C20.7005 9.84559 20.6773 9.83736 20.6559 9.82528L19.8401 9.38265L18.3137 8.59034L17.6697 8.93338C17.6486 8.94616 17.6252 8.95443 17.601 8.95772C17.5778 8.95184 17.5554 8.94292 17.5344 8.93116L17.0321 8.6678C16.9934 8.64788 16.9956 8.62575 17.0321 8.60361L17.6997 8.27164L16.2914 7.53688L15.4992 7.1363C15.467 7.11859 15.4499 7.10531 15.452 7.09867C15.4542 7.09203 15.4692 7.08096 15.495 7.06768L15.905 6.85743C15.9248 6.8456 15.9467 6.83807 15.9694 6.8353C15.9927 6.83976 16.0151 6.84798 16.0359 6.85965L16.8045 7.27351L18.2171 8.00607L18.5993 7.81131L17.4808 7.23146L16.6392 6.8176C16.607 6.79989 16.5898 6.78661 16.592 6.77997C16.5941 6.77333 16.6091 6.76227 16.6371 6.74678L17.0128 6.55423C17.0317 6.54414 17.0526 6.53887 17.0739 6.53887C17.0952 6.53887 17.1162 6.54414 17.1351 6.55423L17.7126 6.86629L18.1935 6.61841L17.9616 6.4989L17.1952 6.11602C17.1673 6.10275 17.1566 6.08947 17.1587 6.08283C17.1609 6.07619 17.1759 6.06512 17.206 6.04963L17.6074 5.8438C17.6269 5.83296 17.6486 5.82728 17.6708 5.82728C17.6929 5.82728 17.7146 5.83296 17.7341 5.8438L18.4769 6.23775L18.7109 6.35726L19.1832 6.11602L18.7796 5.91684L18.6572 5.85709C18.625 5.8416 18.6057 5.8261 18.6078 5.81946C18.61 5.81282 18.625 5.80176 18.6529 5.78627L19.0329 5.59151C19.0538 5.57866 19.0773 5.57108 19.1016 5.56937C19.1262 5.57266 19.1497 5.58175 19.1703 5.59593L19.984 6.02528L22.8199 7.48155L23.6915 7.92418C23.728 7.94188 23.7473 7.95738 23.7473 7.96401C23.7473 7.97065 23.7237 7.97287 23.698 7.98615ZM25.1127 7.69843L24.707 7.90426C24.6855 7.91784 24.6612 7.92617 24.6361 7.9286C24.6121 7.9232 24.589 7.91426 24.5674 7.90205L23.7709 7.48376L23.0153 7.09424L22.7619 7.2381C22.7411 7.24953 22.7179 7.25551 22.6943 7.25551C22.6707 7.25551 22.6475 7.24953 22.6267 7.2381L22.1394 6.98801C22.1036 6.97031 22.0864 6.95703 22.0878 6.94818C22.0878 6.94818 22.1029 6.93047 22.1286 6.91719L22.2338 6.8685L22.4099 6.78661L21.2592 6.1957L20.9973 6.34176C20.9755 6.35443 20.9513 6.36199 20.9264 6.3639C20.9039 6.35789 20.8823 6.34896 20.862 6.33734L20.3833 6.09168C20.336 6.06734 20.336 6.04521 20.3833 6.02308L20.4928 5.96996L20.6688 5.89028L19.9797 5.53396L19.1982 5.14445C19.1682 5.12896 19.151 5.11568 19.1531 5.10904C19.1553 5.1024 19.1703 5.08912 19.1982 5.07584L19.6126 4.85452C19.6371 4.84039 19.6641 4.83137 19.692 4.82796C19.7141 4.83158 19.7353 4.83987 19.7542 4.85231L20.5099 5.25511L21.1991 5.60921C21.3633 5.52425 21.5231 5.43043 21.6778 5.32814C21.8728 5.43113 22.0627 5.54415 22.2467 5.66675C22.2982 5.69995 22.3047 5.72651 22.2682 5.74643C22.2285 5.76353 22.1865 5.77398 22.1437 5.77741C22.0213 5.80679 21.9035 5.85373 21.7937 5.91684L22.9401 6.50997C23.1081 6.43009 23.269 6.3353 23.421 6.22668C23.5971 6.32185 23.7881 6.43693 23.9985 6.56972C24.0522 6.60734 24.0629 6.63391 24.0286 6.65161C23.9867 6.66842 23.9425 6.67813 23.8976 6.68038C23.7745 6.71081 23.6561 6.75847 23.5455 6.82202L24.2991 7.21154L25.117 7.61876C25.1535 7.63647 25.1685 7.64974 25.1664 7.6586C25.1524 7.6767 25.1338 7.69048 25.1127 7.69843V7.69843Z" fill="#FA4242"/>
<path d="M20.6873 7.37528L21.5267 7.80685L22.0011 7.5634L21.1596 7.13184L20.6873 7.37528Z" fill="#FA4242"/>
<path d="M19.6833 7.88654L20.5228 8.31811L21.0079 8.07024L20.1685 7.63867L19.6833 7.88654Z" fill="#FA4242"/>
<rect x="15.4216" y="6.57642" width="7.08451" height="3.31974" fill="#FA4242"/>
<rect x="14.5623" y="4.80591" width="7.08451" height="3.31974" fill="#FA4242"/>
<rect x="15.6365" y="5.24854" width="7.08451" height="3.31974" fill="#FA4242"/>
<rect x="17.1404" y="5.91235" width="7.08451" height="3.31974" fill="#FA4242"/>
<rect x="18.2146" y="6.57642" width="7.08451" height="2.21316" fill="#FA4242"/>
<rect x="11.988" y="9.45337" width="7.08451" height="2.21316" fill="#FA4242"/>
<rect x="10.4841" y="11.2241" width="6.65515" height="2.21316" fill="#FA4242"/>
<rect x="8.1228" y="9.45337" width="7.08451" height="2.21316" fill="#FA4242"/>
<rect x="10.0544" y="7.9043" width="7.08451" height="2.21316" fill="#FA4242"/>
<rect x="4.47437" y="7.46167" width="7.08451" height="2.21316" fill="#FA4242"/>
<rect x="2.54272" y="6.57642" width="7.08451" height="2.21316" fill="#FA4242"/>
<rect x="4.25757" y="5.69116" width="7.08451" height="2.21316" fill="#FA4242"/>
<rect x="5.54663" y="4.80591" width="7.08451" height="2.21316" fill="#FA4242"/>
<rect x="7.69507" y="5.91235" width="7.08451" height="2.21316" fill="#FA4242"/>
<rect x="10.0544" y="4.14185" width="7.08451" height="2.21316" fill="#FA4242"/>
<rect x="11.988" y="3.92065" width="7.08451" height="2.21316" fill="#FA4242"/>
<rect x="10.699" y="3.0354" width="7.08451" height="2.21316" fill="#FA4242"/>
<rect x="10.2693" y="2.81396" width="7.08451" height="2.21316" fill="#FA4242"/>
<rect x="11.1287" y="1.92871" width="4.29364" height="2.21316" fill="#FA4242"/>
<rect x="13.0603" y="2.37134" width="4.29364" height="2.21316" fill="#FA4242"/>
</svg>
