<svg width="25" height="25" viewBox="0 0 25 25" fill="none" xmlns="http://www.w3.org/2000/svg">
<path d="M12.5 22.5C6.97715 22.5 2.5 18.0228 2.5 12.5C2.5 6.97715 6.97715 2.5 12.5 2.5C18.0228 2.5 22.5 6.97715 22.5 12.5C22.4939 18.0203 18.0203 22.4939 12.5 22.5ZM4.5 12.672C4.54732 17.0732 8.14111 20.6095 12.5425 20.586C16.944 20.5622 20.4995 16.9875 20.4995 12.586C20.4995 8.18451 16.944 4.60977 12.5425 4.586C8.14111 4.56246 4.54732 8.09876 4.5 12.5V12.672ZM13.5 17.5H11.5V13.5H7.5V11.5H11.5V7.5H13.5V11.5H17.5V13.5H13.5V17.5Z" fill="white"/>
</svg>
