<svg width="18" height="18" viewBox="0 0 18 18" fill="none" xmlns="http://www.w3.org/2000/svg">
<g opacity="0.3">
<path d="M4.3125 3.75C4.16332 3.75 4.02024 3.80926 3.91475 3.91475C3.80926 4.02024 3.75 4.16332 3.75 4.3125C3.75 4.46168 3.80926 4.60476 3.91475 4.71025C4.02024 4.81574 4.16332 4.875 4.3125 4.875H9.9375C10.0867 4.875 10.2298 4.81574 10.3352 4.71025C10.4407 4.60476 10.5 4.46168 10.5 4.3125C10.5 4.16332 10.4407 4.02024 10.3352 3.91475C10.2298 3.80926 10.0867 3.75 9.9375 3.75H4.3125ZM4.3125 7.125C4.16332 7.125 4.02024 7.18426 3.91475 7.28975C3.80926 7.39524 3.75 7.53832 3.75 7.6875C3.75 7.83668 3.80926 7.97976 3.91475 8.08525C4.02024 8.19074 4.16332 8.25 4.3125 8.25H9.9375C10.0867 8.25 10.2298 8.19074 10.3352 8.08525C10.4407 7.97976 10.5 7.83668 10.5 7.6875C10.5 7.53832 10.4407 7.39524 10.3352 7.28975C10.2298 7.18426 10.0867 7.125 9.9375 7.125H4.3125ZM3.75 11.0625C3.75 10.9133 3.80926 10.7702 3.91475 10.6648C4.02024 10.5593 4.16332 10.5 4.3125 10.5H9.9375C10.0867 10.5 10.2298 10.5593 10.3352 10.6648C10.4407 10.7702 10.5 10.9133 10.5 11.0625C10.5 11.2117 10.4407 11.3548 10.3352 11.4602C10.2298 11.5657 10.0867 11.625 9.9375 11.625H4.3125C4.16332 11.625 4.02024 11.5657 3.91475 11.4602C3.80926 11.3548 3.75 11.2117 3.75 11.0625ZM4.3125 13.875C4.16332 13.875 4.02024 13.9343 3.91475 14.0398C3.80926 14.1452 3.75 14.2883 3.75 14.4375C3.75 14.5867 3.80926 14.7298 3.91475 14.8352C4.02024 14.9407 4.16332 15 4.3125 15H9.9375C10.0867 15 10.2298 14.9407 10.3352 14.8352C10.4407 14.7298 10.5 14.5867 10.5 14.4375C10.5 14.2883 10.4407 14.1452 10.3352 14.0398C10.2298 13.9343 10.0867 13.875 9.9375 13.875H4.3125Z" fill="#353535"/>
<path d="M0 2.25C0 1.65326 0.237053 1.08097 0.65901 0.65901C1.08097 0.237053 1.65326 0 2.25 0L15.75 0C16.3467 0 16.919 0.237053 17.341 0.65901C17.7629 1.08097 18 1.65326 18 2.25V15.75C18 16.3467 17.7629 16.919 17.341 17.341C16.919 17.7629 16.3467 18 15.75 18H2.25C1.65326 18 1.08097 17.7629 0.65901 17.341C0.237053 16.919 0 16.3467 0 15.75V2.25ZM13.5 1.125V16.875H15.75C16.0484 16.875 16.3345 16.7565 16.5455 16.5455C16.7565 16.3345 16.875 16.0484 16.875 15.75V2.25C16.875 1.95163 16.7565 1.66548 16.5455 1.4545C16.3345 1.24353 16.0484 1.125 15.75 1.125H13.5ZM12.375 1.125H2.25C1.95163 1.125 1.66548 1.24353 1.4545 1.4545C1.24353 1.66548 1.125 1.95163 1.125 2.25V15.75C1.125 16.0484 1.24353 16.3345 1.4545 16.5455C1.66548 16.7565 1.95163 16.875 2.25 16.875H12.375V1.125Z" fill="#353535"/>
</g>
</svg>
