<svg width="90" height="90" viewBox="0 0 90 90" fill="none" xmlns="http://www.w3.org/2000/svg">
<path d="M32.4375 84.375L25.3125 72.1875L11.1562 69.2812L12.75 55.5L3.75 45L12.75 34.5938L11.1562 20.8125L25.3125 17.9062L32.4375 5.625L45 11.4375L57.5625 5.625L64.7812 17.9062L78.8438 20.8125L77.25 34.5938L86.25 45L77.25 55.5L78.8438 69.2812L64.7812 72.1875L57.5625 84.375L45 78.5625L32.4375 84.375ZM34.9688 76.9688L45 72.75L55.3125 76.9688L61.5937 67.5938L72.5625 64.7812L71.4375 53.625L79.0312 45L71.4375 36.1875L72.5625 25.0312L61.5937 22.4062L55.125 13.0312L45 17.25L34.6875 13.0312L28.4062 22.4062L17.4375 25.0312L18.5625 36.1875L10.9688 45L18.5625 53.625L17.4375 64.9688L28.4062 67.5938L34.9688 76.9688ZM40.9688 57.4688L62.25 36.375L58.0312 32.5312L40.9688 49.4062L32.0625 40.125L27.75 44.3438L40.9688 57.4688Z" fill="#0CCD87"/>
</svg>
